<?xml version="1.0" encoding="UTF-8" standalone="no"?>
<svg
   xmlns:dc="http://purl.org/dc/elements/1.1/"
   xmlns:cc="http://creativecommons.org/ns#"
   xmlns:rdf="http://www.w3.org/1999/02/22-rdf-syntax-ns#"
   xmlns:svg="http://www.w3.org/2000/svg"
   xmlns="http://www.w3.org/2000/svg"
   xmlns:sodipodi="http://sodipodi.sourceforge.net/DTD/sodipodi-0.dtd"
   xmlns:inkscape="http://www.inkscape.org/namespaces/inkscape"
   height="1024"
   width="1024"
   version="1.0"
   viewBox="0 0 1024 1024"
   id="svg2"
   sodipodi:docname="xflowered_area.svg"
   inkscape:version="0.92.4 (5da689c313, 2019-01-14)">
  <sodipodi:namedview
     pagecolor="#ffffff"
     bordercolor="#666666"
     borderopacity="1"
     objecttolerance="10"
     gridtolerance="10"
     guidetolerance="10"
     inkscape:pageopacity="0"
     inkscape:pageshadow="2"
     inkscape:window-width="1920"
     inkscape:window-height="1024"
     id="namedview19"
     showgrid="false"
     units="px"
     inkscape:zoom="0.5223817"
     inkscape:cx="187.26737"
     inkscape:cy="248.66322"
     inkscape:window-x="0"
     inkscape:window-y="0"
     inkscape:window-maximized="1"
     inkscape:current-layer="svg2" />
  <defs
     id="defs8" />
  <path
     inkscape:connector-curvature="0"
     style="color:#000000;font-style:normal;font-variant:normal;font-weight:normal;font-stretch:normal;font-size:medium;line-height:normal;font-family:sans-serif;font-variant-ligatures:normal;font-variant-position:normal;font-variant-caps:normal;font-variant-numeric:normal;font-variant-alternates:normal;font-feature-settings:normal;text-indent:0;text-align:start;text-decoration:none;text-decoration-line:none;text-decoration-style:solid;text-decoration-color:#000000;letter-spacing:normal;word-spacing:normal;text-transform:none;writing-mode:lr-tb;direction:ltr;text-orientation:mixed;dominant-baseline:auto;baseline-shift:baseline;text-anchor:start;white-space:normal;shape-padding:0;clip-rule:nonzero;display:inline;overflow:visible;visibility:visible;opacity:1;isolation:auto;mix-blend-mode:normal;color-interpolation:sRGB;color-interpolation-filters:linearRGB;solid-color:#000000;solid-opacity:1;vector-effect:none;fill-opacity:1;fill-rule:evenodd;stroke:none;stroke-width:9.56451321;stroke-linecap:butt;stroke-linejoin:miter;stroke-miterlimit:4;stroke-dasharray:none;stroke-dashoffset:0;stroke-opacity:1;color-rendering:auto;image-rendering:auto;shape-rendering:auto;text-rendering:auto;enable-background:accumulate"
     d="m 239.85517,24.330943 c -46.83994,-6.74698 -41.35227,52.28249 -46.55769,82.699167 -4.42599,29.89893 7.62976,65.69554 -35.92397,58.73325 -52.58715,7.82696 -105.174405,15.654 -157.76155811,23.48097 14.54051711,25.95315 -1.49713999,77.6167 39.77377411,81.43731 26.895137,-8.34773 30.355127,58.09654 4.040484,58.28837 -25.730985,3.58304 -35.3587851,15.70933 -28.06711,42.67606 -9.5231361,33.76724 12.770282,58.87102 27.819521,81.44994 -13.675849,49.18434 41.094212,49.70168 74.470899,44.94332 29.59811,9.15998 93.72578,-42.60807 79.08235,16.94314 3.22604,38.93117 -5.13137,76.79637 -10.73803,114.93183 -5.04245,45.67958 4.88483,90.93688 9.37344,136.05804 -7.39722,32.69662 -53.13598,41.41049 -59.6126,80.30553 -19.36633,21.05618 -50.060777,70.82584 0.91524,72.21984 34.04785,-7.41925 67.2801,-38.47342 104.13084,-15.99932 34.83397,21.38132 80.58469,32.14572 116.51948,8.77497 51.18377,0.54584 45.39127,-63.15771 5.69154,-78.72016 -40.89675,-10.54875 -38.40636,-66.3557 -85.05869,-63.44296 -23.82697,-32.96214 -3.31523,-89.16347 -11.33982,-130.6453 0.95966,-55.47668 -5.7203,-111.58223 0.52447,-166.64597 34.59518,-37.77099 100.94473,-34.22665 147.93075,-56.28523 27.10227,-18.46904 77.81391,34.50809 73.40596,-18.69763 14.28043,-29.38761 -26.08764,-53.45303 -0.59809,-74.5319 1.4011,-36.01035 6.31206,-71.65859 -2.21615,-107.06768 -10.97482,-24.64133 2.95417,-79.142 -37.26518,-69.12034 -31.50036,3.3584 -61.92163,-7.18473 -92.76463,-8.45116 -28.01451,-6.76141 -90.1745,32.89723 -86.77502,-9.79492 -9.46992,-31.394117 17.69118,-99.545657 -29.00021,-103.539167 z m -3.19059,15.24995 c 41.54207,19.14724 -48.77166,23.51465 -11.60789,1.48465 l 5.87941,-1.09467 z m 19.96724,16.63081 c 0.86713,13.46283 0.16297,20.45036 0,0 z m -47.51138,3.9849 c -0.40494,19.80575 -12.40492,92.447557 -10.03512,79.136367 2.83835,-26.44138 6.83266,-52.739667 10.03512,-79.136367 z m 38.48834,11.14491 c -5.96833,26.05667 22.18744,79.982557 -11.29865,83.339647 -50.10829,15.37194 -17.40419,-55.990767 -16.72448,-80.772027 10.64234,7.35588 18.02328,7.61437 28.02313,-2.56762 z M 372.5876,158.4117 c 12.51944,11.48774 -64.15467,15.30378 -15.22795,23.28694 -26.75714,8.39671 -58.25715,19.84216 -88.09537,23.87174 -26.43269,22.1848 -60.10408,-4.06089 -80.05056,22.0599 -15.35048,-16.84797 -28.61049,-30.73939 -27.80009,2.17949 -7.4506,40.90353 -62.920857,-30.75848 -39.65389,14.05061 -7.54259,17.73208 -71.66298,18.88242 -79.406824,2.8511 C 20.10488,195.04791 86.347213,213.35213 115.39783,203.35308 201.56271,190.97006 286.9719,174.01364 372.5876,158.4117 Z m -170.13489,3.07405 c 4.89723,1.51834 -2.49954,3.68559 0,0 z m 259.60322,0.95193 c 2.11342,20.95881 4.22677,41.91754 6.34011,62.87627 -65.91321,28.09007 -137.2841,38.73496 -206.24754,56.72658 -36.30156,13.38772 -70.30938,7.1798 -102.17404,24.63298 -21.24546,1.69407 -77.152757,29.29617 -71.426997,-7.3638 -9.12313,-28.64637 12.601047,-34.89333 37.483997,-39.47447 10.80038,10.81473 29.15746,19.11795 39.9933,-5.06241 14.42099,-28.83133 33.42003,25.06676 40.7183,-13.7952 16.32193,-4.36248 73.45547,31.18452 68.37529,-16.98597 31.53669,-22.25129 33.41396,47.48551 68.93643,13.57189 8.68134,-16.48957 -30.44624,-3.62474 -14.4435,-28.90452 -34.65859,-5.95724 22.40644,-12.15355 29.3981,8.97933 22.28824,27.23586 43.43061,-53.91745 7.68976,-18.99755 -38.61367,-4.96637 57.31183,-16.1586 13.12913,-23.85706 24.02671,-14.03214 55.52699,-8.0398 82.22766,-12.34607 z m -257.39894,10.60117 c -13.27839,2.20674 -24.98769,3.52948 0,0 z m 194.93437,13.20354 c -30.73499,22.75271 32.50365,61.78258 10.08921,18.43368 -3.50459,-6.05365 -7.76127,-11.77016 -10.08921,-18.43368 z m -28.59562,22.7908 c -1.15914,6.90749 -9.14414,0.33061 0,0 z m -55.58232,7.74146 3.06351,0.29782 z m -58.64097,5.83069 c -0.75411,18.36657 -48.26786,8.6108 -12.77661,3.68797 l 6.3883,-1.84403 z m 221.44594,4.77911 c 1.28579,6.05154 -4.36837,8.44896 0,0 z m -284.42503,6.08628 c 1.81025,7.6631 -6.95983,-3.03526 0,0 z m -21.6226,0.0519 c 5.57474,0.97329 -3.64206,4.05895 0,0 z m 24.29348,4.40004 c -0.12983,8.92303 -6.15304,2.32153 0,0 z m 65.32577,1.21103 c -2.30657,2.95646 -5.80624,-1.33716 0,0 z m -235.105611,4.78254 c 7.512965,8.90421 -5.585735,3.56853 0,0 z m 397.420061,10.36784 c 18.11634,0.78393 36.23269,1.56786 54.34895,2.35179 -0.66414,42.31104 -10.75159,78.56827 -56.84656,86.99516 -43.06305,13.67637 -88.47894,19.07266 -132.58537,29.23855 -32.83744,17.66003 -2.18248,-41.19755 11.79813,-11.3231 12.20562,-31.20668 45.50199,9.98156 57.16758,-26.07189 23.41535,-18.79974 -9.73537,-22.62922 -18.89807,-4.68219 -19.67981,-4.79802 -35.17118,-3.29376 -51.79461,2.63139 -15.75515,-15.42664 -19.2717,36.22714 -43.49859,14.22679 -24.74213,14.23189 51.35343,29.36767 9.1496,32.54947 -19.87488,1.72124 -89.76657,27.16073 -50.10371,-5.26313 15.70572,26.06237 40.9929,-35.97049 11.38203,-13.96477 -23.79627,-5.26735 -40.42436,-15.35127 -64.66929,6.50651 -18.17836,-3.2715 -48.51439,-11.75626 -20.63866,12.78744 17.21737,27.73524 59.66852,-34.99316 51.98502,15.99884 -40.3329,-0.44943 -101.358277,30.23613 -127.83608,16.34681 1.181563,-27.7568 -13.025172,-66.85314 25.912613,-66.78708 20.12651,-5.89876 40.252947,-11.79735 60.379457,-17.69611 30.81503,-15.57432 50.87585,-2.4422 78.13088,-14.12739 17.98706,19.3067 38.75246,10.10881 43.70493,-4.89627 22.25877,9.25276 23.07111,-33.75989 50.96566,-26.783 29.2141,-15.86298 -9.10009,27.16542 23.57436,9.60458 23.55115,3.05497 70.44273,-9.46728 41.36345,-26.22923 15.7949,-3.23669 31.33404,-7.64147 47.00828,-11.41317 z m -62.57091,15.67182 c -10.94595,10.11217 -19.68041,0.26853 0,0 z m -122.79503,30.78118 c -0.30881,8.87553 -16.87682,-1.67059 0,0 z m 71.20105,33.77958 c 23.42371,11.675 20.03091,-0.35269 -0.0527,2.26383 -17.38756,16.46283 -6.50036,8.14033 0.0527,-2.26383 z m -275.786358,10.5514 c 0.448825,24.58223 0.897738,49.16451 1.346564,73.74665 -6.389715,-23.9165 -5.276403,-49.51923 -1.346564,-73.74665 z m 437.723398,5.48757 c 9.35523,9.40775 -4.09194,2.2721 0,0 z m -58.34756,8.40033 c 32.83488,-9.97741 88.58738,12.67275 53.74049,47.37625 -44.25236,-20.20673 -87.90637,8.43155 -131.28834,17.54403 -66.58755,18.78365 -132.55916,41.50285 -199.81577,56.8696 -18.562,0 -37.124097,0 -55.686187,0 -22.89318,-38.14628 17.46585,-52.33772 47.206087,-62.51856 52.81231,-11.95822 106.31612,-21.68549 159.32448,-33.16471 -4.1105,48.82214 -66.03837,6.09235 -94.31112,29.99021 -5.34167,22.20089 -69.83575,15.70977 -27.43693,34.81462 23.4844,13.55306 26.34341,-31.89009 49.20281,-17.05484 20.62495,-32.79847 89.40262,20.09274 85.1193,-34.80318 27.49743,9.46535 60.98185,-6.7403 88.93814,-23.48622 -9.79183,-17.14789 17.37595,-10.58271 25.00704,-15.5672 z m -149.01328,2.81662 c 5.68002,-0.61348 3.31293,3.74259 0,0 z m 111.95207,4.79802 c -12.18029,4.59521 -60.91298,24.07049 -53.87347,10.77489 18.09629,-2.89824 35.87736,-7.30724 53.87347,-10.77489 z m -203.19239,75.87038 c 4.13934,-3.20951 1.65229,3.55806 0,0 z m 77.00596,22.99142 c -3.63264,116.22906 -0.24636,232.54642 -0.63643,348.82114 -35.8916,1.02465 -11.11685,92.79152 -36.96771,52.09892 -1.42422,-52.70395 6.68691,-106.47803 -7.01507,-158.21477 -9.65779,-55.5014 3.7075,-110.86972 7.76205,-165.96012 5.5912,-33.57289 -13.87233,-77.68179 36.85716,-76.74517 z m -190.760897,0.7651 c 3.13588,12.59983 -0.14354,21.95779 0,0 z m 12.05927,18.70633 0.86027,4.76514 z M 259.00418,758.70386 c 0.43141,16.5155 0.16262,84.05426 0.13509,36.50261 -0.0448,-12.16754 -0.0901,-24.33516 -0.13509,-36.50261 z m 9.78127,21.71002 c 36.0348,-5.68363 -10.15736,51.90956 0.32227,7.41753 z m 30.85998,3.95912 c 1.46434,1.35862 -4.13767,1.57797 0,0 z m 10.29924,6.83072 c 5.42988,6.70476 6.73739,8.31914 0,0 z m -9.01098,4.54929 c 31.82183,16.84401 -30.63113,12.27519 0,0 z m -106.38561,5.49435 c -5.23409,24.13367 13.05042,81.82703 -20.77455,79.21412 6.69552,-15.61539 16.26572,-55.36533 -8.12477,-26.92231 -4.85713,17.65125 -29.09485,69.90234 -41.071,38.20233 23.31236,-29.0179 35.87314,-75.09995 69.97032,-90.49414 z m 94.45844,13.42299 c -0.53792,2.91925 -45.67913,5.84889 -50.7638,26.90287 11.68274,-16.82932 29.10374,-32.89012 50.7638,-26.90287 z m 29.33672,6.41909 c 9.48549,9.63615 -0.47231,22.79484 0.43862,2.04719 z m -20.65846,3.69844 c 43.14124,17.12379 -9.51988,52.43596 -3.58664,77.73467 -45.33507,11.3148 -76.71344,-60.39989 -23.31034,-73.42796 8.62558,-3.01451 17.79558,-4.1747 26.89698,-4.30671 z m 33.99225,9.23226 c 30.14545,-8.51281 70.24034,73.60736 20.41624,42.16409 -18.77098,-8.15424 -22.07442,-23.91106 -20.41624,-42.16409 z m -8.57869,37.33554 c 13.38569,16.18507 42.1939,19.27443 6.72649,29.59532 -35.734,22.10701 -26.21878,-18.40512 -6.72649,-29.59532 z m -120.06761,3.85974 c 25.42262,12.06262 -16.34056,8.08177 0,0 z m -40.26719,6.39323 c -1.35659,14.76852 -4.22774,18.92342 0,0 z m 221.42528,11.56701 c -4.86787,8.61652 -17.08747,-2.84099 0,0 z m -14.26004,2.14422 c -6.16579,1.2236 -5.59207,1.10971 0,0 z m -6.89597,1.5215 c -16.77524,6.37684 -44.2038,20.56113 -13.15587,5.05986 4.2689,-1.96716 8.63551,-3.75103 13.15587,-5.05986 z"
     id="path2316" />
  <metadata
     id="metadata5">
    <rdf:RDF>
      <cc:Work>
        <dc:format>image/svg+xml</dc:format>
        <dc:type
           rdf:resource="http://purl.org/dc/dcmitype/StillImage" />
        <cc:license
           rdf:resource="http://creativecommons.org/publicdomain/zero/1.0/" />
        <dc:publisher>
          <cc:Agent
             rdf:about="http://openclipart.org/">
            <dc:title>Openclipart</dc:title>
          </cc:Agent>
        </dc:publisher>
        <dc:title></dc:title>
        <dc:date>2006-12-26T00:00:00</dc:date>
        <dc:description />
        <dc:source>https://openclipart.org/detail/11508/-by--11508</dc:source>
        <dc:creator>
          <cc:Agent>
            <dc:title>nicubunu</dc:title>
          </cc:Agent>
        </dc:creator>
      </cc:Work>
      <cc:License
         rdf:about="http://creativecommons.org/publicdomain/zero/1.0/">
        <cc:permits
           rdf:resource="http://creativecommons.org/ns#Reproduction" />
        <cc:permits
           rdf:resource="http://creativecommons.org/ns#Distribution" />
        <cc:permits
           rdf:resource="http://creativecommons.org/ns#DerivativeWorks" />
      </cc:License>
    </rdf:RDF>
  </metadata>
  <g
     id="g891"
     transform="matrix(1.8382518,0,0,1.8382518,-3897.0183,-3962.2659)">
    <path
       style="fill:#ec7d46;stroke-width:0.37882283"
       d="m 2475.2411,2682.3064 c 0.1243,-0.1242 0.658,-1.1044 1.1861,-2.1781 1.3508,-2.7471 2.9907,-4.5954 4.8945,-5.5171 3.5425,-1.7149 6.4491,-0.6873 8.9611,3.1683 1.5551,2.3869 2.8125,3.2797 3.7783,2.6828 1.0444,-0.6456 -0.4098,-4.756 -2.3087,-6.5245 -2.5867,-2.4093 -8.2552,-3.2027 -11.5358,-1.6146 -2.9796,1.4423 -5.9171,5.3925 -6.4394,8.6592 -0.2194,1.3716 -0.1623,1.55 0.495,1.55 0.4086,0 0.8447,-0.102 0.9689,-0.226 z m -140.0916,-5.4289 c 0.8611,-1.3934 -2.0612,-6.7719 -4.7299,-8.705 -2.259,-1.6365 -3.8402,-2.0458 -7.1412,-1.8486 -3.1594,0.1888 -5.1957,1.0062 -6.9986,2.8092 -1.9338,1.9337 -2.8307,4.4913 -1.9821,5.6519 0.7902,1.0807 2.1541,0.2538 3.9547,-2.3978 1.7978,-2.6472 3.0291,-3.5362 5.2445,-3.7859 3.386,-0.3816 6.4281,1.7218 8.9134,6.163 1.2186,2.1776 2.2213,2.9512 2.7392,2.1132 z m 143.3353,-8.8594 c 1.0809,-1.1506 1.045,-1.4252 -0.3597,-2.7459 -1.3841,-1.3013 -11.9821,-13.4403 -14.0815,-16.1289 -0.7908,-1.0128 -1.6432,-1.8377 -1.8941,-1.8332 -0.4987,0.012 -2.5398,2.7071 -2.5398,3.3574 0,0.2217 0.4687,0.6505 1.0417,0.9528 1.1874,0.6264 4.605,4.0989 7.867,7.9934 2.4406,2.9138 8.5579,9.2811 8.9167,9.2811 0.1243,0 0.5966,-0.3945 1.0497,-0.8767 z m 134.5481,-4.7469 c 0,-2.6272 -3.6572,-7.3594 -6.6605,-8.6181 -3.255,-1.3642 -8.4051,-0.798 -11.043,1.2139 -1.8206,1.3887 -3.2275,3.6885 -3.2781,5.3587 -0.04,1.3279 0.028,1.4186 1.0741,1.4186 0.8874,0 1.3731,-0.3508 2.3608,-1.7047 3.2393,-4.441 5.1339,-5.3933 8.6791,-4.3627 2.5604,0.7443 4.5944,2.6659 6.2104,5.867 0.8272,1.6387 1.3654,2.284 1.905,2.284 0.62,0 0.7522,-0.2562 0.7522,-1.4567 z m -281.9944,-1.1072 c 1.1141,-1.6987 11.7085,-15.3653 14.2136,-18.3355 0.6447,-0.7643 1.0563,-1.5773 0.9146,-1.8065 -0.2729,-0.4416 -3.2623,-2.0313 -4.5943,-2.4431 -0.6842,-0.2116 -0.9777,0.1288 -2.162,2.508 -0.7538,1.514 -2.8405,4.6279 -4.6371,6.9197 -3.3447,4.2665 -7.6858,10.3309 -8.4601,11.8183 -0.3913,0.7518 -0.2705,0.9443 1.2476,1.9888 0.9245,0.6361 1.8207,1.1534 1.9915,1.1496 0.1707,0 0.8396,-0.8134 1.4862,-1.7993 z m 258.1435,-10.348 c 0.7821,-1.6697 0.8404,-2.017 0.3636,-2.1648 -0.4835,-0.1497 -6.3469,-3.1339 -17.9938,-9.1581 -1.4584,-0.7544 -3.2484,-1.7465 -3.9776,-2.2046 -2.0048,-1.2597 -2.4336,-1.1009 -3.1127,1.1529 -1.2379,4.1083 -1.3013,3.865 1.1357,4.3691 1.352,0.2797 5.5844,2.16 11.2581,5.0014 5.0005,2.5044 9.6101,4.6523 10.2434,4.7732 1.0866,0.2074 1.2044,0.1067 2.0833,-1.7691 z m -39.3717,-8.0577 c 4.2805,-1.7609 6.6063,-3.8044 8.5623,-7.5233 0.9372,-1.7819 1.0533,-2.3987 1.0535,-5.6013 2e-4,-3.1759 -0.1247,-3.8536 -1.0627,-5.7669 -2.9254,-5.9674 -7.2058,-6.8062 -18.9775,-3.7193 -7.7034,2.0201 -10.1822,2.3827 -12.8791,1.8841 -5.079,-0.9388 -8.1259,-2.9794 -16.1348,-10.8053 -8.346,-8.1554 -11.3787,-10.0548 -16.1,-10.0841 -2.8962,-0.018 -5.3262,1.0857 -7.7686,3.528 -3.3732,3.3732 -5.5857,7.936 -5.9514,12.2729 -0.4928,5.8467 2.4822,9.393 9.8536,11.7463 3.8548,1.2305 8.363,1.5486 11.8216,0.834 1.4586,-0.3013 5.3793,-1.2644 8.713,-2.1402 12.3267,-3.2384 15.2001,-2.249 21.0748,7.2563 4.2082,6.8092 7.386,9.0199 12.9388,9.0017 1.9709,-0.012 3.3242,-0.2525 4.8565,-0.8829 z m -91.4092,-0.6548 c 2.2561,-0.4362 4.5215,-1.7807 5.91,-3.5079 1.0676,-1.3279 1.1692,-1.6938 1.1569,-4.167 -0.012,-2.1754 -0.3001,-3.4977 -1.4633,-6.689 -2.7797,-7.6268 -3.3347,-9.8272 -3.1394,-12.4506 0.2398,-3.2218 2.4186,-7.5402 5.9503,-11.794 6.6963,-8.0653 8.0666,-10.4646 8.11,-14.1996 0.033,-2.8804 -1.2351,-5.2101 -3.9033,-7.1688 -5.1265,-3.7631 -11.5905,-4.3088 -14.8841,-1.2564 -2.0613,1.9103 -3.413,6.2615 -3.4394,11.0707 -0.014,2.5637 0.2016,3.6437 1.399,7.0083 3.3912,9.5295 3.6933,10.6618 3.5477,13.3005 -0.184,3.3342 -1.2143,4.8394 -5.8263,8.511 -1.9913,1.5854 -4.122,3.5746 -4.735,4.4208 -5.3685,7.4111 2.1739,18.689 11.3169,16.922 z m -99.177,-6.3837 c 3.13,-0.9521 4.9722,-2.8013 7.1952,-7.2225 1.7867,-3.5537 3.3472,-5.4284 5.457,-6.556 2.44,-1.304 7.3498,-1.1436 13.863,0.4528 6.8963,1.6904 10.2474,1.5942 14.4799,-0.4157 6.5309,-3.1016 8.1444,-7.2055 5.1718,-13.1544 -1.8431,-3.6883 -4.405,-5.3326 -8.2871,-5.3187 -2.1019,0.012 -7.911,1.2634 -9.3532,2.022 -1.4741,0.7755 -4.1506,3.6542 -6.7395,7.2489 -2.9006,4.0272 -5.7284,6.936 -7.5837,7.8007 -2.0838,0.971 -4.9945,0.9084 -10.3216,-0.2224 -5.3781,-1.1415 -9.1404,-1.218 -11.2713,-0.2292 -3.8759,1.7986 -7.0082,5.3251 -7.0082,7.89 0,3.1571 2.6712,6.0507 6.7481,7.3099 2.4377,0.7529 5.8867,0.9308 7.6496,0.3946 z m 241.1182,-26.2001 c 27.192,-1.0084 47.4223,-7.7508 59.4964,-19.8293 6.3903,-6.3927 9.901,-12.9382 11.1749,-20.8351 0.5816,-3.6055 0.2603,-12.1881 -0.6034,-16.1209 -4.1269,-18.788 -19.3165,-40.3027 -40.1408,-56.8559 -18.2394,-14.4984 -52.9017,-32.1538 -83.7199,-42.6434 -16.2698,-5.5377 -43.8865,-12.4299 -45.7787,-11.4248 -3.9323,2.0887 -9.426,33.5569 -13.677,78.3436 -2.0784,21.8954 -2.68,31.0013 -3.0535,46.2164 -0.1685,6.865 -0.4303,10.4154 -1.0059,13.6376 -1.0288,5.7601 -1.0887,9.3822 -0.1781,10.7719 1.2963,1.9784 8.1004,4.4116 18.4238,6.5885 30.431,6.4172 65.2421,11.5183 82.0152,12.0182 3.5421,0.1056 7.2071,0.2388 8.1447,0.296 0.9377,0.057 4.9436,-0.015 8.9023,-0.1628 z m -189.6007,-12.0427 c 34.3466,-7.5074 60.6008,-33.4255 68.7324,-67.8524 1.8145,-7.682 3.1022,-20.6232 3.5073,-35.2454 0.3882,-14.0192 -1.0657,-20.0506 -6.9719,-28.9224 -7.4782,-11.2331 -21.6236,-20.7594 -36.8561,-24.821 -8.5194,-2.2715 -26.0211,-4.6573 -39.5217,-5.3874 -18.9352,-1.024 -35.8349,1.9588 -38.2529,6.7517 -0.8673,1.7194 -1.0639,4.1059 -0.6277,7.6198 0.9024,7.2692 3.574,20.3535 6.8275,33.4375 6.8007,27.3492 12.2768,55.2341 17.5705,89.4709 0.733,4.7411 1.6876,10.0101 2.1213,11.7085 1.6738,6.5555 4.4983,10.7011 8.6493,12.6946 1.9067,0.9156 2.6307,1.0355 6.8667,1.1366 3.5487,0.084 5.5422,-0.064 7.9553,-0.591 z m -59.9287,-4.2354 c 5.7833,-1.1388 11.7771,-8.0972 16.0586,-18.6429 5.4703,-13.474 7.7047,-27.3012 6.7499,-41.7701 -1.7572,-26.6295 -10.658,-41.9408 -25.9853,-44.7006 -12.813,-2.307 -23.1314,4.8659 -29.2801,20.3546 -1.4724,3.7092 -3.2752,11.0095 -3.8489,15.5858 -0.641,5.114 -0.2743,23.6038 0.576,29.0431 2.0546,13.1437 5.5922,20.9156 13.2564,29.1229 4.7743,5.1127 11.813,9.8403 16.1041,10.8163 2.848,0.6477 3.8907,0.679 6.3693,0.1909 z m -39.2282,-98.878 c 0.3646,-0.2123 0.6629,-0.5278 0.6629,-0.7012 0,-0.6205 -2.4976,-2.7394 -5.2545,-4.4577 -1.5434,-0.9619 -6.3197,-4.3114 -10.614,-7.4431 -9.4291,-6.8766 -17.2926,-12.0596 -31.1056,-20.5032 -14.1539,-8.6519 -23.3105,-14.4625 -25.5098,-16.1881 -1.0084,-0.7913 -2.125,-1.4386 -2.4813,-1.4386 -1.4816,0 -2.0367,1.7984 -1.0084,3.2665 0.5866,0.8376 15.9918,11.8432 24.4537,17.4701 11.255,7.4842 23.9085,15.6458 28.0328,18.0812 2.3962,1.415 7.2009,4.4346 10.6773,6.7103 5.575,3.6498 9.4795,5.6377 11.0009,5.6015 0.2656,-0.012 0.7813,-0.1853 1.146,-0.3977 z m 18.8029,-15.0905 c 0.7997,-0.5021 0.048,-2.2476 -2.9513,-6.8509 -1.4252,-2.1876 -4.7769,-7.7279 -7.448,-12.3117 -5.4044,-9.274 -10.4111,-16.9248 -21.229,-32.4404 -6.375,-9.1434 -13.0906,-19.1627 -15.4967,-23.1201 -1.9258,-3.1674 -4.328,-0.5448 -2.5905,2.8282 1.5062,2.9238 13.2084,22.005 18.0519,29.4347 10.9945,16.8648 12.3302,18.8687 15.6555,23.4871 1.8753,2.6043 4.6532,6.6956 6.173,9.0917 4.4979,7.0907 6.4177,9.331 8.5527,9.9804 0.4167,0.1268 0.9938,0.082 1.2824,-0.099 z m 153.2773,-42.1137 c 2.292,-0.3849 9.0696,-1.2257 15.0616,-1.8685 29.8532,-3.2025 49.3254,-7.9935 72.0677,-17.7317 22.5073,-9.6377 38.4249,-19.6028 60.0565,-37.5979 21.3954,-17.7987 33.5833,-32.4141 35.2797,-42.3063 0.7783,-4.5392 -0.4469,-7.0385 -4.1433,-8.4515 -2.7455,-1.0495 -9.1485,-1.1327 -14.4813,-0.1883 -13.6959,2.4257 -35.0066,9.9785 -56.4445,20.0046 -1.9795,0.9258 -4.2808,1.8975 -5.1142,2.1596 -0.8334,0.262 -4.0724,1.7241 -7.1977,3.249 -12.0662,5.8876 -28.0333,16.9356 -51.7092,35.7792 -4.4796,3.5653 -12.6412,9.8418 -18.1366,13.9479 -18.5579,13.866 -24.0172,18.3855 -27.9118,23.1071 -2.7682,3.3561 -5.1315,7.4079 -5.3737,9.2131 l -0.1976,1.4736 2.0387,-0.045 c 1.1213,-0.025 3.9139,-0.36 6.2057,-0.7449 z m -27.2753,-3.0903 c 1.9008,-1.381 7.8941,-6.8161 16.8577,-15.2873 16.3058,-15.4101 32.699,-32.532 49.6543,-51.8617 5.7135,-6.5136 26.3685,-30.9323 31.0821,-36.7458 11.9131,-14.6929 19.0741,-26.2801 21.7733,-35.2306 1.3096,-4.3425 1.5073,-11.3699 0.4315,-15.3423 -2.1542,-7.9553 -7.0564,-12.9937 -13.7162,-14.0972 -4.1965,-0.6953 -10.3017,1.0119 -16.4415,4.5978 -10.6753,6.2346 -24.4837,19.768 -40.6144,39.8053 -5.6055,6.963 -18.1875,26.3858 -25.0307,38.6399 -12.8584,23.0254 -22.1008,46.0358 -24.9539,62.127 -1.2443,7.0177 -1.5618,24.2828 -0.4455,24.2326 0.1467,-0.012 0.7783,-0.3836 1.4033,-0.8377 z"
       id="path893"
       inkscape:connector-curvature="0" />
  </g>
</svg>
