<?xml version="1.0" encoding="UTF-8" standalone="no"?>
<svg
   xmlns:dc="http://purl.org/dc/elements/1.1/"
   xmlns:cc="http://creativecommons.org/ns#"
   xmlns:rdf="http://www.w3.org/1999/02/22-rdf-syntax-ns#"
   xmlns:svg="http://www.w3.org/2000/svg"
   xmlns="http://www.w3.org/2000/svg"
   xmlns:sodipodi="http://sodipodi.sourceforge.net/DTD/sodipodi-0.dtd"
   xmlns:inkscape="http://www.inkscape.org/namespaces/inkscape"
   height="1024"
   width="1024"
   version="1.0"
   viewBox="0 0 1024 1024"
   id="svg2"
   sodipodi:docname="xflowered_area.svg"
   inkscape:version="0.92.4 (5da689c313, 2019-01-14)">
  <sodipodi:namedview
     pagecolor="#ffffff"
     bordercolor="#666666"
     borderopacity="1"
     objecttolerance="10"
     gridtolerance="10"
     guidetolerance="10"
     inkscape:pageopacity="0"
     inkscape:pageshadow="2"
     inkscape:window-width="1920"
     inkscape:window-height="1060"
     id="namedview19"
     showgrid="false"
     units="px"
     inkscape:zoom="0.5223817"
     inkscape:cx="252.39553"
     inkscape:cy="248.66322"
     inkscape:window-x="1920"
     inkscape:window-y="0"
     inkscape:window-maximized="1"
     inkscape:current-layer="svg2" />
  <defs
     id="defs8" />
  <path
     inkscape:connector-curvature="0"
     style="color:#000000;font-style:normal;font-variant:normal;font-weight:normal;font-stretch:normal;font-size:medium;line-height:normal;font-family:sans-serif;font-variant-ligatures:normal;font-variant-position:normal;font-variant-caps:normal;font-variant-numeric:normal;font-variant-alternates:normal;font-feature-settings:normal;text-indent:0;text-align:start;text-decoration:none;text-decoration-line:none;text-decoration-style:solid;text-decoration-color:#000000;letter-spacing:normal;word-spacing:normal;text-transform:none;writing-mode:lr-tb;direction:ltr;text-orientation:mixed;dominant-baseline:auto;baseline-shift:baseline;text-anchor:start;white-space:normal;shape-padding:0;clip-rule:nonzero;display:inline;overflow:visible;visibility:visible;opacity:1;isolation:auto;mix-blend-mode:normal;color-interpolation:sRGB;color-interpolation-filters:linearRGB;solid-color:#000000;solid-opacity:1;vector-effect:none;fill-opacity:1;fill-rule:evenodd;stroke:none;stroke-width:6.57599354;stroke-linecap:butt;stroke-linejoin:miter;stroke-miterlimit:4;stroke-dasharray:none;stroke-dashoffset:0;stroke-opacity:1;color-rendering:auto;image-rendering:auto;shape-rendering:auto;text-rendering:auto;enable-background:accumulate"
     d="M 107.0788,12.865463 C 85.752884,5.8603512 88.251382,67.148225 85.881387,98.728612 c -2.01512,31.042828 3.47378,68.208978 -16.355943,60.980318 -23.942584,8.12642 -47.885216,16.25291 -71.8278011,24.37933 6.6202019,26.94609 -0.681638,80.58623 18.1087381,84.55302 12.245179,-8.66711 13.82049,60.31925 1.839605,60.51842 -11.7151477,3.72012 -16.0986218,16.31035 -12.7787701,44.3088 -4.33582122,35.05914 5.8142261,61.12336 12.6660451,84.56612 -6.226524,51.06608 18.709925,51.60322 33.906111,46.66281 13.475825,9.51043 42.672728,-44.23821 36.005672,17.59136 1.468798,40.42064 -2.336272,79.73452 -4.888952,119.329 -2.295794,47.42723 2.224033,94.41603 4.267668,141.26348 -3.367908,33.94755 -24.192465,42.99481 -27.141227,83.37793 -8.817363,21.86177 -22.792344,73.53556 0.416702,74.98289 15.501763,-7.7031 30.632185,-39.94537 47.410085,-16.61143 15.85968,22.19934 36.68968,33.37558 53.05055,9.11069 23.30364,0.56672 20.66636,-65.57406 2.59133,-81.73191 -18.62002,-10.95233 -17.48617,-68.8944 -38.72667,-65.87022 -10.84826,-34.22324 -1.5094,-92.57477 -5.16294,-135.64365 0.43692,-57.59916 -2.60442,-115.85125 0.23879,-173.02167 15.75095,-39.21606 45.95947,-35.53612 67.35189,-58.43864 12.33949,-19.17564 35.42816,35.82833 33.42126,-19.41298 6.50178,-30.51195 -11.87754,-55.49808 -0.27231,-77.38341 0.63791,-37.38807 2.87384,-74.40017 -1.009,-111.16397 -4.99676,-25.58409 1.34502,-82.16989 -16.96659,-71.76481 -14.3419,3.48688 -28.19251,-7.45961 -42.23513,-8.7745 -12.75482,-7.02009 -41.05586,34.15585 -39.50809,-10.16966 -4.3116,-32.595225 8.05468,-103.354169 -13.20361,-107.500467 z m -1.45265,15.833397 c 18.91383,19.879793 -22.205419,24.414295 -5.285,1.541451 L 103.018,29.10376 Z m 9.09095,17.267087 c 0.3948,13.977903 0.0742,21.232769 0,0 z m -21.631615,4.137358 c -0.18437,20.563497 -5.647886,95.984505 -4.568932,82.164045 1.292289,-27.453 3.110873,-54.757436 4.568932,-82.164045 z m 17.523475,11.571302 c -2.71733,27.05357 10.10181,83.042603 -5.14419,86.528133 -22.813977,15.96006 -7.924018,-58.132914 -7.614551,-83.862278 4.845391,7.637308 8.205881,7.905687 12.758741,-2.665855 z M 167.511,152.07601 c 5.70002,11.92725 -29.2092,15.88928 -6.93318,24.17787 -12.18235,8.71796 -26.5241,20.6013 -40.10924,24.78505 -12.03463,23.03357 -27.364998,-4.21626 -36.446498,22.90389 -6.988973,-17.49256 -13.026168,-31.91545 -12.657198,2.26287 -3.392209,42.46846 -28.647453,-31.93526 -18.054156,14.58817 -3.434091,18.41049 -32.627684,19.60484 -36.153405,2.96018 C 7.0279384,190.11388 37.187638,209.1184 50.414192,198.7368 89.644492,185.88002 128.53074,168.27486 167.511,152.07601 Z m -77.461289,3.19166 c 2.22967,1.57643 -1.138027,3.82659 0,0 z m 118.195639,0.98835 c 0.96223,21.76067 1.92442,43.52126 2.88661,65.28185 -30.00986,29.16476 -62.50455,40.21691 -93.90316,58.89687 -16.52785,13.89992 -32.011389,7.4545 -46.519161,25.57542 -9.672918,1.75888 -35.127143,30.41701 -32.520242,-7.64553 -4.153701,-29.74235 5.737174,-36.22832 17.066218,-40.98473 4.917341,11.22849 13.275199,19.84939 18.208686,-5.25609 6.565782,-29.93438 15.215917,26.02579 18.538772,-14.32299 7.431278,-4.52938 33.443787,32.37761 31.130827,-17.63583 14.35845,-23.1026 15.21315,49.30225 31.38629,14.09113 3.95257,-17.12044 -13.86196,-3.76342 -6.57602,-30.01037 -15.77983,-6.18516 10.2015,-12.61853 13.38476,9.32287 10.14769,28.27787 19.77367,-55.98028 3.5011,-19.72438 -17.58056,-5.15638 26.0937,-16.77681 5.9776,-24.7698 10.9392,-14.569 25.28107,-8.3474 37.43772,-12.81842 z M 91.053299,167.26278 c -6.045557,2.29116 -11.376729,3.66451 0,0 z m 88.752341,13.70869 c -13.99344,23.6232 14.7987,64.14632 4.59355,19.13893 -1.59561,-6.28525 -3.53365,-12.22047 -4.59355,-19.13893 z m -13.0194,23.66275 c -0.52775,7.17177 -4.16326,0.34326 0,0 z m -25.30627,8.03764 1.3948,0.30922 z m -26.69884,6.05377 c -0.34335,19.06925 -21.976043,8.94024 -5.81711,3.82907 l 2.90855,-1.91458 z m 100.82288,4.96195 c 0.58541,6.28307 -1.98889,8.77221 0,0 z m -129.496851,6.31914 c 0.8242,7.95628 -3.168761,-3.15139 0,0 z m -9.844624,0.0539 c 2.538142,1.01053 -1.658206,4.21424 0,0 z m 11.060662,4.56838 c -0.05911,9.26442 -2.801439,2.41035 0,0 z m 29.742393,1.25737 c -1.05016,3.06957 -2.64355,-1.38832 0,0 z m -107.04204,4.96551 c 3.420604,9.24488 -2.543148,3.70506 0,0 z m 180.94274,10.7645 c 8.24825,0.81393 16.49651,1.62785 24.74472,2.44177 -0.30238,43.92981 -4.89513,81.57421 -25.88186,90.3235 -19.60633,14.19961 -40.28389,19.80236 -60.36525,30.35719 -14.95067,18.33568 -0.99367,-42.77373 5.37161,-11.75631 5.55714,-32.40062 20.71676,10.36344 26.02803,-27.06938 10.66085,-19.51899 -4.43246,-23.49499 -8.60417,-4.86132 -8.96009,-4.98159 -16.01321,-3.41978 -23.58175,2.73206 -7.17321,-16.01684 -8.77428,37.61315 -19.80462,14.77109 -11.264933,14.77639 23.38088,30.49125 4.16575,33.79478 -9.0489,1.7871 -40.870127,28.19987 -22.811888,-5.46449 7.15071,27.05949 18.663798,-37.34668 5.182164,-14.49905 -10.834286,-5.46887 -18.404946,-15.93859 -29.443503,6.75545 -8.276488,-3.39667 -22.088283,-12.20605 -9.396646,13.27667 7.838955,28.79636 27.166684,-36.33196 23.668437,16.61094 -18.363304,-0.46663 -46.147757,31.39293 -58.202927,16.97222 0.537958,-28.81875 -5.930275,-69.41087 11.797843,-69.34228 9.163468,-6.12444 18.326902,-12.24871 27.49037,-18.37315 14.02988,-16.17017 23.16344,-2.53563 35.57248,-14.66789 8.18939,20.04536 17.64373,10.49557 19.89856,-5.08359 10.13428,9.60676 10.50413,-35.05151 23.20434,-27.80769 13.30098,-16.46988 -4.14322,28.20474 10.73325,9.97204 10.72267,3.17185 32.0721,-9.82949 18.8325,-27.23273 7.19132,-3.36052 14.26618,-7.93383 21.40256,-11.84983 z m -28.48812,16.27141 c -4.98362,10.49905 -8.96037,0.2788 0,0 z m -55.90777,31.95883 c -0.1406,9.2151 -7.683909,-1.7345 0,0 z m 32.41737,35.07196 c 10.66466,12.12167 9.11994,-0.36619 -0.024,2.35044 -7.91643,17.09268 -2.95957,8.45177 0.024,-2.35044 z M 13.424052,345.87364 c 0.204347,25.52272 0.408734,51.04549 0.613082,76.56812 -2.909196,-24.83152 -2.402312,-51.41378 -0.613082,-76.56812 z m 199.292588,5.69752 c 4.25938,9.76768 -1.86304,2.35903 0,0 z m -26.56527,8.72172 c 14.94951,-10.35914 40.33326,13.15759 24.4677,49.18881 -20.14781,-20.97982 -40.02319,8.75413 -59.77472,18.21525 -30.31687,19.50229 -60.353314,43.0907 -90.974806,59.04537 -8.451156,0 -16.902357,0 -25.353555,0 -10.423115,-39.60572 7.952087,-54.34011 21.492621,-64.91046 24.045099,-12.41572 48.40503,-22.51515 72.53938,-34.43355 -1.87147,50.69002 -30.066819,6.32543 -42.939227,31.1376 -2.432024,23.05027 -31.795755,16.31081 -12.49185,36.14659 10.692292,14.07159 11.993982,-33.11017 22.401714,-17.70734 9.390403,-34.0533 40.704423,20.86147 38.754263,-36.13471 12.5194,9.82748 27.76463,-6.99818 40.49295,-24.38478 -4.45816,-17.80395 7.91116,-10.98759 11.38553,-16.16278 z m -67.84476,2.92438 c 2.58607,-0.63695 1.50836,3.88578 0,0 z m 50.97104,4.98158 c -5.5456,4.77102 -27.73328,24.99141 -24.52823,11.18713 8.23912,-3.00912 16.33472,-7.58681 24.52823,-11.18713 z m -92.512158,78.7731 c 1.884615,-3.3323 0.752277,3.69419 0,0 z m 35.060308,23.87105 c -1.65391,120.67586 -0.11217,241.4434 -0.28976,362.16666 -16.341215,1.06386 -5.06143,96.34163 -16.831161,54.09217 -0.648437,-54.72034 3.04451,-110.55176 -3.19391,-164.26789 -4.397129,-57.62483 1.688,-115.11148 3.534006,-172.30958 2.545637,-34.85735 -6.31598,-80.65381 16.780825,-79.68136 z m -86.852183,0.79437 c 1.427745,13.08189 -0.06535,22.79787 0,0 z m 5.490506,19.42202 0.391676,4.94745 z M 115.79722,775.3347 c 0.19642,17.14737 0.074,87.27009 0.0615,37.89916 -0.0204,-12.63305 -0.041,-25.26619 -0.0615,-37.89916 z m 4.45334,22.54063 c 16.40641,-5.90108 -4.62457,53.89556 0.14673,7.70131 z m 14.05035,4.11059 c 0.66671,1.4106 -1.88385,1.63834 0,0 z m 4.68918,7.09205 c 2.47219,6.96128 3.06749,8.63742 0,0 z m -4.10264,4.72334 c 14.48827,17.48845 -13.94615,12.74483 0,0 z m -48.436668,5.70456 c -2.383047,25.057 5.941771,84.95765 -9.458517,82.24477 3.048427,-16.21282 7.405675,-57.48355 -3.699154,-27.95233 -2.211419,18.32657 -13.246694,72.57673 -18.699357,39.66391 10.613965,-30.12809 16.332805,-77.97319 31.857028,-93.95635 z m 43.006308,13.93654 c -0.24491,3.03094 -20.79741,6.07266 -23.11243,27.93215 5.31908,-17.4732 13.25074,-34.14846 23.11243,-27.93215 z m 13.35682,6.66468 c 4.31867,10.00482 -0.21504,23.66694 0.19969,2.12551 z m -9.40566,3.83994 c 19.64192,17.77892 -4.33435,54.4421 -1.63298,80.70871 -20.64076,11.74769 -34.927121,-62.71072 -10.61305,-76.23723 3.92717,-3.12985 8.10221,-4.33442 12.24603,-4.47148 z m 15.47644,9.58547 c 13.72503,-8.8385 31.97996,76.4235 9.29538,43.77725 -8.5463,-8.46622 -10.05034,-24.82588 -9.29538,-43.77725 z m -3.90582,38.76396 c 6.09441,16.80429 19.21061,20.01185 3.06253,30.72761 -16.26946,22.9528 -11.93724,-19.10928 -3.06253,-30.72761 z m -54.66599,4.00741 c 11.57475,12.52412 -7.439753,8.39097 0,0 z m -18.333391,6.63783 c -0.617647,15.33355 -1.924862,19.64741 0,0 z m 100.813481,12.00955 c -2.21632,8.94618 -7.77982,-2.94968 0,0 z m -6.49251,2.22626 c -2.80724,1.27041 -2.54603,1.15216 0,0 z m -3.13969,1.57971 c -7.63766,6.62081 -20.1257,21.34777 -5.98978,5.25344 1.9436,-2.04242 3.93169,-3.89454 5.98978,-5.25344 z"
     id="path2316" />
  <metadata
     id="metadata5">
    <rdf:RDF>
      <cc:Work>
        <dc:format>image/svg+xml</dc:format>
        <dc:type
           rdf:resource="http://purl.org/dc/dcmitype/StillImage" />
        <cc:license
           rdf:resource="http://creativecommons.org/publicdomain/zero/1.0/" />
        <dc:publisher>
          <cc:Agent
             rdf:about="http://openclipart.org/">
            <dc:title>Openclipart</dc:title>
          </cc:Agent>
        </dc:publisher>
        <dc:title />
        <dc:date>2006-12-26T00:00:00</dc:date>
        <dc:description />
        <dc:source>https://openclipart.org/detail/11508/-by--11508</dc:source>
        <dc:creator>
          <cc:Agent>
            <dc:title>nicubunu</dc:title>
          </cc:Agent>
        </dc:creator>
      </cc:Work>
      <cc:License
         rdf:about="http://creativecommons.org/publicdomain/zero/1.0/">
        <cc:permits
           rdf:resource="http://creativecommons.org/ns#Reproduction" />
        <cc:permits
           rdf:resource="http://creativecommons.org/ns#Distribution" />
        <cc:permits
           rdf:resource="http://creativecommons.org/ns#DerivativeWorks" />
      </cc:License>
    </rdf:RDF>
  </metadata>
  <g
     id="g891"
     transform="matrix(1.9657083,0,0,2.3764174,-4237.494,-5361.8834)">
    <path
       style="fill:#ec7d46;stroke-width:0.37882283"
       d="m 2475.2411,2682.3064 c 0.1243,-0.1242 0.658,-1.1044 1.1861,-2.1781 1.3508,-2.7471 2.9907,-4.5954 4.8945,-5.5171 3.5425,-1.7149 6.4491,-0.6873 8.9611,3.1683 1.5551,2.3869 2.8125,3.2797 3.7783,2.6828 1.0444,-0.6456 -0.4098,-4.756 -2.3087,-6.5245 -2.5867,-2.4093 -8.2552,-3.2027 -11.5358,-1.6146 -2.9796,1.4423 -5.9171,5.3925 -6.4394,8.6592 -0.2194,1.3716 -0.1623,1.55 0.495,1.55 0.4086,0 0.8447,-0.102 0.9689,-0.226 z m -140.0916,-5.4289 c 0.8611,-1.3934 -2.0612,-6.7719 -4.7299,-8.705 -2.259,-1.6365 -3.8402,-2.0458 -7.1412,-1.8486 -3.1594,0.1888 -5.1957,1.0062 -6.9986,2.8092 -1.9338,1.9337 -2.8307,4.4913 -1.9821,5.6519 0.7902,1.0807 2.1541,0.2538 3.9547,-2.3978 1.7978,-2.6472 3.0291,-3.5362 5.2445,-3.7859 3.386,-0.3816 6.4281,1.7218 8.9134,6.163 1.2186,2.1776 2.2213,2.9512 2.7392,2.1132 z m 143.3353,-8.8594 c 1.0809,-1.1506 1.045,-1.4252 -0.3597,-2.7459 -1.3841,-1.3013 -11.9821,-13.4403 -14.0815,-16.1289 -0.7908,-1.0128 -1.6432,-1.8377 -1.8941,-1.8332 -0.4987,0.012 -2.5398,2.7071 -2.5398,3.3574 0,0.2217 0.4687,0.6505 1.0417,0.9528 1.1874,0.6264 4.605,4.0989 7.867,7.9934 2.4406,2.9138 8.5579,9.2811 8.9167,9.2811 0.1243,0 0.5966,-0.3945 1.0497,-0.8767 z m 134.5481,-4.7469 c 0,-2.6272 -3.6572,-7.3594 -6.6605,-8.6181 -3.255,-1.3642 -8.4051,-0.798 -11.043,1.2139 -1.8206,1.3887 -3.2275,3.6885 -3.2781,5.3587 -0.04,1.3279 0.028,1.4186 1.0741,1.4186 0.8874,0 1.3731,-0.3508 2.3608,-1.7047 3.2393,-4.441 5.1339,-5.3933 8.6791,-4.3627 2.5604,0.7443 4.5944,2.6659 6.2104,5.867 0.8272,1.6387 1.3654,2.284 1.905,2.284 0.62,0 0.7522,-0.2562 0.7522,-1.4567 z m -281.9944,-1.1072 c 1.1141,-1.6987 11.7085,-15.3653 14.2136,-18.3355 0.6447,-0.7643 1.0563,-1.5773 0.9146,-1.8065 -0.2729,-0.4416 -3.2623,-2.0313 -4.5943,-2.4431 -0.6842,-0.2116 -0.9777,0.1288 -2.162,2.508 -0.7538,1.514 -2.8405,4.6279 -4.6371,6.9197 -3.3447,4.2665 -7.6858,10.3309 -8.4601,11.8183 -0.3913,0.7518 -0.2705,0.9443 1.2476,1.9888 0.9245,0.6361 1.8207,1.1534 1.9915,1.1496 0.1707,0 0.8396,-0.8134 1.4862,-1.7993 z m 258.1435,-10.348 c 0.7821,-1.6697 0.8404,-2.017 0.3636,-2.1648 -0.4835,-0.1497 -6.3469,-3.1339 -17.9938,-9.1581 -1.4584,-0.7544 -3.2484,-1.7465 -3.9776,-2.2046 -2.0048,-1.2597 -2.4336,-1.1009 -3.1127,1.1529 -1.2379,4.1083 -1.3013,3.865 1.1357,4.3691 1.352,0.2797 5.5844,2.16 11.2581,5.0014 5.0005,2.5044 9.6101,4.6523 10.2434,4.7732 1.0866,0.2074 1.2044,0.1067 2.0833,-1.7691 z m -39.3717,-8.0577 c 4.2805,-1.7609 6.6063,-3.8044 8.5623,-7.5233 0.9372,-1.7819 1.0533,-2.3987 1.0535,-5.6013 2e-4,-3.1759 -0.1247,-3.8536 -1.0627,-5.7669 -2.9254,-5.9674 -7.2058,-6.8062 -18.9775,-3.7193 -7.7034,2.0201 -10.1822,2.3827 -12.8791,1.8841 -5.079,-0.9388 -8.1259,-2.9794 -16.1348,-10.8053 -8.346,-8.1554 -11.3787,-10.0548 -16.1,-10.0841 -2.8962,-0.018 -5.3262,1.0857 -7.7686,3.528 -3.3732,3.3732 -5.5857,7.936 -5.9514,12.2729 -0.4928,5.8467 2.4822,9.393 9.8536,11.7463 3.8548,1.2305 8.363,1.5486 11.8216,0.834 1.4586,-0.3013 5.3793,-1.2644 8.713,-2.1402 12.3267,-3.2384 15.2001,-2.249 21.0748,7.2563 4.2082,6.8092 7.386,9.0199 12.9388,9.0017 1.9709,-0.012 3.3242,-0.2525 4.8565,-0.8829 z m -91.4092,-0.6548 c 2.2561,-0.4362 4.5215,-1.7807 5.91,-3.5079 1.0676,-1.3279 1.1692,-1.6938 1.1569,-4.167 -0.012,-2.1754 -0.3001,-3.4977 -1.4633,-6.689 -2.7797,-7.6268 -3.3347,-9.8272 -3.1394,-12.4506 0.2398,-3.2218 2.4186,-7.5402 5.9503,-11.794 6.6963,-8.0653 8.0666,-10.4646 8.11,-14.1996 0.033,-2.8804 -1.2351,-5.2101 -3.9033,-7.1688 -5.1265,-3.7631 -11.5905,-4.3088 -14.8841,-1.2564 -2.0613,1.9103 -3.413,6.2615 -3.4394,11.0707 -0.014,2.5637 0.2016,3.6437 1.399,7.0083 3.3912,9.5295 3.6933,10.6618 3.5477,13.3005 -0.184,3.3342 -1.2143,4.8394 -5.8263,8.511 -1.9913,1.5854 -4.122,3.5746 -4.735,4.4208 -5.3685,7.4111 2.1739,18.689 11.3169,16.922 z m -99.177,-6.3837 c 3.13,-0.9521 4.9722,-2.8013 7.1952,-7.2225 1.7867,-3.5537 3.3472,-5.4284 5.457,-6.556 2.44,-1.304 7.3498,-1.1436 13.863,0.4528 6.8963,1.6904 10.2474,1.5942 14.4799,-0.4157 6.5309,-3.1016 8.1444,-7.2055 5.1718,-13.1544 -1.8431,-3.6883 -4.405,-5.3326 -8.2871,-5.3187 -2.1019,0.012 -7.911,1.2634 -9.3532,2.022 -1.4741,0.7755 -4.1506,3.6542 -6.7395,7.2489 -2.9006,4.0272 -5.7284,6.936 -7.5837,7.8007 -2.0838,0.971 -4.9945,0.9084 -10.3216,-0.2224 -5.3781,-1.1415 -9.1404,-1.218 -11.2713,-0.2292 -3.8759,1.7986 -7.0082,5.3251 -7.0082,7.89 0,3.1571 2.6712,6.0507 6.7481,7.3099 2.4377,0.7529 5.8867,0.9308 7.6496,0.3946 z m 241.1182,-26.2001 c 27.192,-1.0084 47.4223,-7.7508 59.4964,-19.8293 6.3903,-6.3927 9.901,-12.9382 11.1749,-20.8351 0.5816,-3.6055 0.2603,-12.1881 -0.6034,-16.1209 -4.1269,-18.788 -19.3165,-40.3027 -40.1408,-56.8559 -18.2394,-14.4984 -52.9017,-32.1538 -83.7199,-42.6434 -16.2698,-5.5377 -43.8865,-12.4299 -45.7787,-11.4248 -3.9323,2.0887 -9.426,33.5569 -13.677,78.3436 -2.0784,21.8954 -2.68,31.0013 -3.0535,46.2164 -0.1685,6.865 -0.4303,10.4154 -1.0059,13.6376 -1.0288,5.7601 -1.0887,9.3822 -0.1781,10.7719 1.2963,1.9784 8.1004,4.4116 18.4238,6.5885 30.431,6.4172 65.2421,11.5183 82.0152,12.0182 3.5421,0.1056 7.2071,0.2388 8.1447,0.296 0.9377,0.057 4.9436,-0.015 8.9023,-0.1628 z m -189.6007,-12.0427 c 34.3466,-7.5074 60.6008,-33.4255 68.7324,-67.8524 1.8145,-7.682 3.1022,-20.6232 3.5073,-35.2454 0.3882,-14.0192 -1.0657,-20.0506 -6.9719,-28.9224 -7.4782,-11.2331 -21.6236,-20.7594 -36.8561,-24.821 -8.5194,-2.2715 -26.0211,-4.6573 -39.5217,-5.3874 -18.9352,-1.024 -35.8349,1.9588 -38.2529,6.7517 -0.8673,1.7194 -1.0639,4.1059 -0.6277,7.6198 0.9024,7.2692 3.574,20.3535 6.8275,33.4375 6.8007,27.3492 12.2768,55.2341 17.5705,89.4709 0.733,4.7411 1.6876,10.0101 2.1213,11.7085 1.6738,6.5555 4.4983,10.7011 8.6493,12.6946 1.9067,0.9156 2.6307,1.0355 6.8667,1.1366 3.5487,0.084 5.5422,-0.064 7.9553,-0.591 z m -59.9287,-4.2354 c 5.7833,-1.1388 11.7771,-8.0972 16.0586,-18.6429 5.4703,-13.474 7.7047,-27.3012 6.7499,-41.7701 -1.7572,-26.6295 -10.658,-41.9408 -25.9853,-44.7006 -12.813,-2.307 -23.1314,4.8659 -29.2801,20.3546 -1.4724,3.7092 -3.2752,11.0095 -3.8489,15.5858 -0.641,5.114 -0.2743,23.6038 0.576,29.0431 2.0546,13.1437 5.5922,20.9156 13.2564,29.1229 4.7743,5.1127 11.813,9.8403 16.1041,10.8163 2.848,0.6477 3.8907,0.679 6.3693,0.1909 z m -39.2282,-98.878 c 0.3646,-0.2123 0.6629,-0.5278 0.6629,-0.7012 0,-0.6205 -2.4976,-2.7394 -5.2545,-4.4577 -1.5434,-0.9619 -6.3197,-4.3114 -10.614,-7.4431 -9.4291,-6.8766 -17.2926,-12.0596 -31.1056,-20.5032 -14.1539,-8.6519 -23.3105,-14.4625 -25.5098,-16.1881 -1.0084,-0.7913 -2.125,-1.4386 -2.4813,-1.4386 -1.4816,0 -2.0367,1.7984 -1.0084,3.2665 0.5866,0.8376 15.9918,11.8432 24.4537,17.4701 11.255,7.4842 23.9085,15.6458 28.0328,18.0812 2.3962,1.415 7.2009,4.4346 10.6773,6.7103 5.575,3.6498 9.4795,5.6377 11.0009,5.6015 0.2656,-0.012 0.7813,-0.1853 1.146,-0.3977 z m 18.8029,-15.0905 c 0.7997,-0.5021 0.048,-2.2476 -2.9513,-6.8509 -1.4252,-2.1876 -4.7769,-7.7279 -7.448,-12.3117 -5.4044,-9.274 -10.4111,-16.9248 -21.229,-32.4404 -6.375,-9.1434 -13.0906,-19.1627 -15.4967,-23.1201 -1.9258,-3.1674 -4.328,-0.5448 -2.5905,2.8282 1.5062,2.9238 13.2084,22.005 18.0519,29.4347 10.9945,16.8648 12.3302,18.8687 15.6555,23.4871 1.8753,2.6043 4.6532,6.6956 6.173,9.0917 4.4979,7.0907 6.4177,9.331 8.5527,9.9804 0.4167,0.1268 0.9938,0.082 1.2824,-0.099 z m 153.2773,-42.1137 c 2.292,-0.3849 9.0696,-1.2257 15.0616,-1.8685 29.8532,-3.2025 49.3254,-7.9935 72.0677,-17.7317 22.5073,-9.6377 38.4249,-19.6028 60.0565,-37.5979 21.3954,-17.7987 33.5833,-32.4141 35.2797,-42.3063 0.7783,-4.5392 -0.4469,-7.0385 -4.1433,-8.4515 -2.7455,-1.0495 -9.1485,-1.1327 -14.4813,-0.1883 -13.6959,2.4257 -35.0066,9.9785 -56.4445,20.0046 -1.9795,0.9258 -4.2808,1.8975 -5.1142,2.1596 -0.8334,0.262 -4.0724,1.7241 -7.1977,3.249 -12.0662,5.8876 -28.0333,16.9356 -51.7092,35.7792 -4.4796,3.5653 -12.6412,9.8418 -18.1366,13.9479 -18.5579,13.866 -24.0172,18.3855 -27.9118,23.1071 -2.7682,3.3561 -5.1315,7.4079 -5.3737,9.2131 l -0.1976,1.4736 2.0387,-0.045 c 1.1213,-0.025 3.9139,-0.36 6.2057,-0.7449 z m -27.2753,-3.0903 c 1.9008,-1.381 7.8941,-6.8161 16.8577,-15.2873 16.3058,-15.4101 32.699,-32.532 49.6543,-51.8617 5.7135,-6.5136 26.3685,-30.9323 31.0821,-36.7458 11.9131,-14.6929 19.0741,-26.2801 21.7733,-35.2306 1.3096,-4.3425 1.5073,-11.3699 0.4315,-15.3423 -2.1542,-7.9553 -7.0564,-12.9937 -13.7162,-14.0972 -4.1965,-0.6953 -10.3017,1.0119 -16.4415,4.5978 -10.6753,6.2346 -24.4837,19.768 -40.6144,39.8053 -5.6055,6.963 -18.1875,26.3858 -25.0307,38.6399 -12.8584,23.0254 -22.1008,46.0358 -24.9539,62.127 -1.2443,7.0177 -1.5618,24.2828 -0.4455,24.2326 0.1467,-0.012 0.7783,-0.3836 1.4033,-0.8377 z"
       id="path893"
       inkscape:connector-curvature="0" />
  </g>
</svg>
