<?xml version="1.0" encoding="UTF-8" standalone="no"?>
<svg
   xmlns:dc="http://purl.org/dc/elements/1.1/"
   xmlns:cc="http://creativecommons.org/ns#"
   xmlns:rdf="http://www.w3.org/1999/02/22-rdf-syntax-ns#"
   xmlns:svg="http://www.w3.org/2000/svg"
   xmlns="http://www.w3.org/2000/svg"
   xmlns:sodipodi="http://sodipodi.sourceforge.net/DTD/sodipodi-0.dtd"
   xmlns:inkscape="http://www.inkscape.org/namespaces/inkscape"
   version="1.1"
   viewBox="0 0 1365 1365"
   id="svg6"
   sodipodi:docname="xseed.svg"
   inkscape:version="0.92.4 (5da689c313, 2019-01-14)">
  <metadata
     id="metadata12">
    <rdf:RDF>
      <cc:Work
         rdf:about="">
        <dc:format>image/svg+xml</dc:format>
        <dc:type
           rdf:resource="http://purl.org/dc/dcmitype/StillImage" />
        <dc:title></dc:title>
      </cc:Work>
    </rdf:RDF>
  </metadata>
  <defs
     id="defs10" />
  <sodipodi:namedview
     pagecolor="#ffffff"
     bordercolor="#666666"
     borderopacity="1"
     objecttolerance="10"
     gridtolerance="10"
     guidetolerance="10"
     inkscape:pageopacity="0"
     inkscape:pageshadow="2"
     inkscape:window-width="1920"
     inkscape:window-height="1024"
     id="namedview8"
     showgrid="false"
     inkscape:zoom="0.17289377"
     inkscape:cx="46.271186"
     inkscape:cy="682.5"
     inkscape:window-x="0"
     inkscape:window-y="0"
     inkscape:window-maximized="1"
     inkscape:current-layer="svg6" />
  <g
     transform="matrix(1 0 0 -1 0 1365)"
     id="g4">
    <path
       d="M 14.322034,1349 V 1254 16 H 1350.678 V 1349 Z M 245.31207,1159 H 1120.8973 V 206 H 245.31207 Z"
       id="path2"
       inkscape:connector-curvature="0"
       style="fill:currentColor;stroke-width:1.0997144"
       sodipodi:nodetypes="ccccccccccc" />
  </g>
  <path
     style="fill:#000000;stroke-width:1.09784794"
     d="m 750.51576,1205.9221 4.4085,-4.6467 2.6682,-5.3175 2.6681,-5.3174 0.049,-6.8546 0.049,-6.8547 -2.8107,-4.5027 -2.8106,-4.5028 -5.1599,-3.4252 -5.1599,-3.4252 -8.5126,-2.0052 -8.5128,-2.0052 -16.638,0.3772 -16.638,0.3772 -8.4894,3.3589 -8.4895,3.3588 -3.7883,4.7625 -3.7881,4.7625 v 8.3415 8.3415 l 4.7298,7.4198 4.7298,7.42 c 20.65868,18.1139 51.43145,21.4859 71.4954,0.3373 z m -89.5165,-38.0017 h 1.7085 l 2.557,-1.9831 2.5571,-1.983 -0.6873,-1.8842 -0.6872,-1.8842 -0.7306,-2.1753 -0.7304,-2.1753 -9.3674,-22.7199 -9.3674,-22.7199 -5.975,-13.5433 -5.9751,-13.5434 -6.5325,-16.9111 -6.5323,-16.911 -6.7346,-13.28 -6.7346,-13.2802 -8.0299,-11.3734 -8.0298,-11.3734 -14.2067,-25.62039 -14.207,-25.6203 -6.1666,-10.1537 -6.1665,-10.1537 -11.0198,-15.4667 -11.0197,-15.4666 -17.2121,-21.9006 -17.2122,-21.9007 -8.8306,-10.8437 -8.8305,-10.8438 -6.8239,-7.156 -6.8241,-7.1561 -9.0051,-7.352 -9.005,-7.3519 -7.6845,-4.2526 -7.6844,-4.2526 -9.3806,-3.3611 -9.3805,-3.3612 -8.8919,-1.4506 -8.8919,-1.4506 -18.3046,-1.079 -18.3047,-1.0792 -15.7853,0.5602 -15.7853,0.5601 -12.8568,2.0319 -12.8569,2.032 -9.0318,2.9158 -9.0317,2.9159 -7.6083,3.8136 -7.6082,3.8136 -6.0387,4.6831 -6.0387,4.6831 -3.3949,5.1958 -3.3951,5.1957 -2.2386,6.0708 -2.2387,6.0709 -1.4114,11.1137 -1.4114,11.1137 1.3755,14.4633 1.3755,14.4633 2.3782,7.2113 2.3781,7.2113 3.3667,6.587 3.3667,6.5871 6.2135,9.6681 6.2133,9.6681 12.4964,17.4025 12.4963,17.4024 9.9046,11.5864 9.9044,11.5863 10.3304,10.65009 10.3307,10.6502 12.2857,11.1184 12.2858,11.1182 17.4681,13.5809 17.4681,13.5811 12.4664,8.2974 12.4667,8.2972 20.5697,11.9722 20.5698,11.972 25.5562,13.125 25.5565,13.1249 13.6983,6.1358 13.6984,6.1356 14.9746,5.462 14.9747,5.4621 7.4799,2.0497 7.4799,2.0495 4.9866,1.0372 4.9867,1.0372 34.1326,5.7748 34.1327,5.7748 z m 133.1569,-7.7381 h 11.2932 l 4.3134,-2.0391 4.3133,-2.0393 28.0997,-16.4601 28.0995,-16.4638 20.7409,-12.9282 20.7409,-12.9283 16.6587,-11.2752 16.6586,-11.2753 25.6598,-19.8941 25.6597,-19.8943 11.83444,-11.1183 11.8343,-11.1182 7.5434,-7.7625 7.5433,-7.76259 9.3616,-11.0901 9.3617,-11.0902 7.4897,-10.1514 7.4897,-10.1515 8.2858,-12.085 8.2858,-12.0852 6.0004,-10.1515 6.0003,-10.1514 3.9955,-8.4418 3.9955,-8.4418 2.3329,-6.5437 2.3329,-6.5437 1.9204,-8.7012 1.9204,-8.7012 1.1774,-11.6017 1.1774,-11.6017 -1.0344,-10.6349 -1.0345,-10.6348 -2.7752,-5.8008 -2.7753,-5.8009 -9.0391,-6.8495 -9.0393,-6.8496 -4.7171,-1.7359 -4.7171,-1.736 -8.1959,0.5413 -8.1958,0.5414 -11.2199,3.074 -11.2199,3.0739 -16.2064,5.9933 -16.2065,5.9933 -13.71324,6.1184 -13.7132,6.1183 -13.0898,6.7803 -13.0898,6.7803 -14.9599,8.7915 -14.9597,8.7916 -12.5071,9.6746 -12.5071,9.6745 -11.8025,12.2311 -11.8028,12.2313 -8.9884,11.508 -8.9885,11.5078 -12.245,18.8003 -12.245,18.8003 -6.6692,13.052 -6.669,13.0517 -4.8592,11.1182 -4.8592,11.11839 -3.7962,10.0609 -3.7961,10.0608 -3.5575,11.2088 -3.5575,11.209 -3.2171,12.8615 -3.217,12.8616 -1.8992,10.3416 -1.8991,10.3418 -1.827,14.5022 -1.827,14.502 -1.8719,9.1847 -1.8721,9.1846 -0.8217,8.1187 -0.8217,8.1184 2.3062,1.3079 2.3064,1.3077 h 11.2932 z m -53.997,-16.432 h 1.0303 l 1.8084,-2.1754 1.8085,-2.1753 1.3006,-5.8008 1.3005,-5.8009 1.2259,-16.4356 1.2259,-16.4357 0.7335,-17.4025 0.7345,-17.4025 6.1823,-99.09759 6.1822,-99.0975 6.2887,-113.5997 6.2889,-113.5996 0.7304,-20.303 0.7305,-20.30289 -1.972,-3.6255 -1.9721,-3.6255 h -5.7135 -5.7137 l -4.1466,1.34361 -4.1466,1.34369 -2.6012,2.16528 -2.6013,2.16528 -1.2986,4.69639 -1.2988,4.69632 -1.2491,12.82272 -1.2489,12.8227 -1.279,32.388 -1.2789,32.388 -2.5017,42.5394 -2.5016,42.5395 -4.3435,68.6432 -4.3434,68.6432 -3.7443,58.0083 -3.7441,58.00829 -2.5978,32.388 -2.5977,32.3879 0.4672,15.9524 0.4672,15.9522 2.4536,3.8533 2.4534,3.8532 9.2261,3.6395 9.2262,3.6396 z m 26.5133,-570.77366 8.8573,0.29997 5.6099,-1.26785 5.6099,-1.26785 5.5628,-2.21104 5.5626,-2.21104 6.3212,-5.02122 6.3212,-5.02114 4.4799,-6.69794 4.4799,-6.69793 2.6151,-6.28425 2.6152,-6.28424 1.9025,-8.58617 1.9026,-8.58616 -0.01,-13.16699 -0.01,-13.16691 -1.872,-9.668 -1.8721,-9.66808 -1.8216,-4.87879 -1.8215,-4.87879 -3.2611,-2.37226 -3.2612,-2.37227 -15.7893,0.0495 -15.7893,0.0495 -28.0496,4.9209 -28.0497,4.92084 -4.9866,0.62142 -4.9867,0.62134 -11.8431,2.02117 -11.8432,2.02116 -4.6333,1.81633 -4.6333,1.81633 -1.2882,1.86683 -1.2884,1.86699 -5e-4,4.17245 -5e-4,4.17245 9.4919,15.46891 9.4919,15.4689 7.9007,12.56842 7.9008,12.56849 6.5741,7.73449 6.5741,7.73442 8.135,6.34617 8.135,6.34617 6.1027,2.26757 6.1026,2.26758 8.8572,0.30005 z m -71.5517,-125.47624 3.1166,-0.10698 10.1961,-0.82985 10.1959,-0.82984 5.9793,-1.7217 5.9793,-1.7217 2.8361,-3.26379 2.8361,-3.2638 v -4.6548 -4.65479 l -2.6078,-5.40558 -2.608,-5.40559 -6.3473,-7.44084 -6.3475,-7.44087 -17.5361,-13.60723 -17.5359,-13.60724 -11.8431,-7.27952 -11.8434,-7.27951 -11.2198,-5.78245 -11.2199,-5.78243 -11.007,-5.02141 -11.0069,-5.0214 -9.9186,-3.86753 -9.9187,-3.86752 -21.4606,-7.08099 -21.4605,-7.08097 -11.8003,-3.08119 -11.8005,-3.08118 -8.8938,-0.95933 -8.8938,-0.95934 -3.228,0.95179 -3.2281,0.95176 -1.6318,2.22161 -1.6318,2.22158 0.09,12.56847 0.09,12.56849 2.2139,10.63485 2.2139,10.63487 2.4046,8.11702 2.4047,8.11702 3.7878,7.33622 3.7879,7.33624 6.6593,7.75009 6.6592,7.75008 9.1566,6.87349 9.1564,6.87351 8.7266,4.36277 8.7266,4.36276 14.3365,4.42213 14.3365,4.42214 11.205,2.50455 11.205,2.50457 11.5955,1.44704 11.5952,1.44701 25.1958,0.91319 25.1957,0.91317 3.1167,-0.10698 z m 119.9282,-8.5975 2.8669,-0.0463 5.3294,-1.44851 5.3291,-1.4485 7.7192,-3.5085 7.7191,-3.5085 13.1314,-7.72266 13.1312,-7.7227 10.5966,-6.96069 10.5965,-6.96072 8.8063,-7.19761 8.8064,-7.19763 7.4742,-8.16255 7.474,-8.16251 6.9954,-9.18468 6.9956,-9.18465 3.1059,-7.75731 3.106,-7.75732 1.5303,-8.11651 1.5303,-8.11654 -0.7555,-8.77969 -0.7556,-8.77969 -2.5623,-7.73446 -2.5625,-7.73443 -4.6245,-7.73446 -4.6244,-7.73443 -7.3535,-10.15146 -7.3535,-10.15147 -6.1779,-6.95457 -6.1779,-6.95458 -6.0729,-4.40538 -6.0732,-4.40542 h -2.9944 -2.9947 l -5.1004,3.14213 -5.1004,3.1421 -4.2487,3.86722 -4.2486,3.86723 -7.7518,9.16172 -7.7518,9.16168 -9.2327,12.68506 -9.2328,12.68507 -7.451,11.99142 -7.4512,11.99144 -6.2086,13.13102 -6.2089,13.13106 -3.1861,9.74803 -3.1864,9.74805 -1.9237,7.09188 -1.9238,7.09188 -1.2819,6.76766 -1.2818,6.76764 -1.006,10.87771 -1.0059,10.87767 1.012,7.78587 1.0121,7.78587 2.0856,4.86971 2.0856,4.86968 3.787,3.34498 3.7871,3.34499 3.493,1.40081 3.4929,1.40082 2.8669,-0.0462 z m -50.9118,-4.78788 h 4.3144 l 3.1306,-2.88532 3.1305,-2.88535 2.7057,-5.5742 2.7055,-5.57422 2.3036,-6.93885 2.3037,-6.93889 3.1065,-11.91382 3.1066,-11.91386 2.1127,-11.11826 2.1126,-11.11826 -0.7385,-21.26972 -0.7394,-21.26972 -1.8089,-6.84083 -1.8089,-6.84082 -3.2253,-7.45124 -3.2253,-7.45126 -4.5276,-6.97765 -4.5275,-6.97764 -4.655,-5.31742 -4.6551,-5.31745 -5.9558,-5.13439 -5.956,-5.13441 -10.1012,-6.07292 -10.1014,-6.07292 -9.3498,-4.85027 -9.35,-4.8503 -6.2332,-2.44398 -6.2333,-2.44397 -4.8528,-1.0364 -4.8529,-1.03639 -2.273,0.94341 -2.2731,0.94341 -1.4211,4.0925 -1.421,4.09247 0.049,13.05187 0.049,13.05189 2.0055,16.43568 2.0055,16.43569 2.4444,13.05188 2.4444,13.05188 4.2595,14.55819 4.2593,14.5582 4.4916,11.54555 4.4917,11.54554 5.096,10.63487 5.0961,10.63486 7.2012,11.74837 7.2012,11.74834 4.0626,4.68734 4.0625,4.68734 4.4966,3.70519 4.4965,3.70522 3.3664,1.37051 3.3663,1.37053 h 4.3144 z"
     id="path1678-2"
     inkscape:connector-curvature="0"
     sodipodi:nodetypes="ccccccccccccccccccccccccccccccccccccccccccccccccccccccccccccccccccccccccccccccccccccccccccccccccccccccccccccccccccccccccccccccccccccccccccccccccccccccccccccccccccccccccccccccccccccccccccccccccccccccccccccccccccccccccccccccccccccccccccccccccccccccccccccccccccccccccccccccccccccccccccccccccccccccccccccccccccccccccccccccccccccccccccccccccccccccccccccccccccccccccccccccccccccccccccccccccccccccccccccccccccccccccccccccccccccccccccccccccccccccccccccccccccccccccccccccccccccc" />
</svg>
