<?xml version="1.0" encoding="UTF-8" standalone="no"?>
<svg
   xmlns:dc="http://purl.org/dc/elements/1.1/"
   xmlns:cc="http://creativecommons.org/ns#"
   xmlns:rdf="http://www.w3.org/1999/02/22-rdf-syntax-ns#"
   xmlns:svg="http://www.w3.org/2000/svg"
   xmlns="http://www.w3.org/2000/svg"
   xmlns:sodipodi="http://sodipodi.sourceforge.net/DTD/sodipodi-0.dtd"
   xmlns:inkscape="http://www.inkscape.org/namespaces/inkscape"
   height="1024"
   width="1024"
   version="1.0"
   viewBox="0 0 1024 1024"
   id="svg2"
   sodipodi:docname="xsign.svg"
   inkscape:version="0.92.4 (5da689c313, 2019-01-14)">
  <sodipodi:namedview
     pagecolor="#ffffff"
     bordercolor="#666666"
     borderopacity="1"
     objecttolerance="10"
     gridtolerance="10"
     guidetolerance="10"
     inkscape:pageopacity="0"
     inkscape:pageshadow="2"
     inkscape:window-width="1920"
     inkscape:window-height="1060"
     id="namedview19"
     showgrid="false"
     units="px"
     inkscape:zoom="0.5223817"
     inkscape:cx="-299.92428"
     inkscape:cy="248.66322"
     inkscape:window-x="1920"
     inkscape:window-y="0"
     inkscape:window-maximized="1"
     inkscape:current-layer="svg2" />
  <defs
     id="defs8" />
  <path
     inkscape:connector-curvature="0"
     style="color:#000000;font-style:normal;font-variant:normal;font-weight:normal;font-stretch:normal;font-size:medium;line-height:normal;font-family:sans-serif;font-variant-ligatures:normal;font-variant-position:normal;font-variant-caps:normal;font-variant-numeric:normal;font-variant-alternates:normal;font-feature-settings:normal;text-indent:0;text-align:start;text-decoration:none;text-decoration-line:none;text-decoration-style:solid;text-decoration-color:#000000;letter-spacing:normal;word-spacing:normal;text-transform:none;writing-mode:lr-tb;direction:ltr;text-orientation:mixed;dominant-baseline:auto;baseline-shift:baseline;text-anchor:start;white-space:normal;shape-padding:0;clip-rule:nonzero;display:inline;overflow:visible;visibility:visible;opacity:1;isolation:auto;mix-blend-mode:normal;color-interpolation:sRGB;color-interpolation-filters:linearRGB;solid-color:#000000;solid-opacity:1;vector-effect:none;fill-opacity:1;fill-rule:evenodd;stroke:none;stroke-width:14.33652782;stroke-linecap:butt;stroke-linejoin:miter;stroke-miterlimit:4;stroke-dasharray:none;stroke-dashoffset:0;stroke-opacity:1;color-rendering:auto;image-rendering:auto;shape-rendering:auto;text-rendering:auto;enable-background:accumulate"
     d="m 490.36254,24.384143 c -95.68107,-7.420992 -84.47127,57.505423 -95.10451,90.960677 -9.04108,32.88578 15.58549,72.25841 -73.38276,64.6006 -107.42103,8.60886 -214.84228,17.21781 -322.26331811,25.82668 29.70226311,28.54583 -3.05824379,85.37048 81.24684311,89.57276 54.939345,-9.18165 62.007145,63.90029 8.253594,64.11128 -52.561301,3.94098 -72.228239,17.27866 -57.33336,46.93933 -19.453138,37.14053 26.086162,64.75213 56.827604,89.58665 -27.935985,54.09777 83.944137,54.66679 152.123497,49.43308 60.46077,10.07505 191.4559,-46.86455 161.54341,18.63573 6.58991,42.82033 -10.48197,84.4682 -21.93483,126.41333 -10.30033,50.24289 9.97836,100.02132 19.14735,149.65 -15.11048,35.96296 -108.54214,45.54733 -121.77209,88.32792 -39.56007,23.15966 -102.26035,77.90122 1.86958,79.43452 69.55036,-8.16046 137.43468,-42.31689 212.71057,-17.59766 71.15619,23.51726 164.61228,35.35706 238.01714,9.65157 104.55431,0.60039 92.72184,-69.46706 11.62624,-86.58417 -83.54077,-11.60255 -78.45359,-72.98452 -173.75142,-69.7808 -48.67193,-36.25501 -6.7721,-98.07075 -23.16413,-143.69655 1.96032,-61.01871 -11.68499,-122.72911 1.07135,-183.29362 70.66841,-41.54425 206.20222,-37.64584 302.1817,-61.90803 55.36245,-20.31407 158.9523,37.95539 149.94811,-20.56549 29.17099,-32.32338 -53.28985,-58.7929 -1.22173,-81.97751 2.86206,-39.60773 12.89382,-78.81717 -4.52698,-117.76356 -22.41853,-27.10296 6.03455,-87.04816 -76.12248,-76.02535 -64.34654,3.6939 -126.4888,-7.90247 -189.49254,-9.29542 C 669.63347,141.60325 542.65777,185.22372 549.60197,138.2667 530.25753,103.73636 585.74016,28.776598 490.36254,24.384143 Z m -6.51749,16.773394 c 84.85898,21.060017 -99.62704,25.863724 -23.71172,1.632965 l 12.01001,-1.204026 z m 40.78756,18.2922 c 1.7713,14.807744 0.3329,22.493317 0,0 z m -97.05264,4.382985 c -0.82718,21.784311 -25.33983,101.682908 -20.49898,87.041958 5.79796,-29.08283 13.95724,-58.008272 20.49898,-87.041958 z m 78.62106,12.258268 c -12.19166,28.65969 45.32281,87.97268 -23.08003,91.66514 -102.3574,16.90757 -35.55195,-61.58415 -34.16349,-88.841019 21.73936,8.09072 36.81658,8.375032 57.24352,-2.824121 z m 255.29723,95.76835 c 25.57376,12.63535 -131.05028,16.8326 -31.1065,25.61327 -54.65745,9.23552 -119.00328,21.82436 -179.95452,26.25648 -53.99469,24.40103 -122.77605,-4.46656 -163.52121,24.26365 -31.35679,-18.53105 -58.44333,-33.8102 -56.78791,2.39722 -15.21952,44.98972 -128.52994,-33.8312 -81.00195,15.45424 -15.40743,19.50349 -146.38769,20.76874 -162.206225,3.13592 -45.446597,-56.82467 89.868205,-36.69189 149.210595,-47.68983 176.01107,-13.62006 350.47848,-32.2704 525.36772,-49.43095 z m -347.53862,3.38114 c 10.00369,1.67002 -5.10587,4.05378 0,0 z m 530.29773,1.04703 c 4.31713,23.05256 8.63412,46.10503 12.95109,69.1575 -134.64249,30.89622 -280.43352,42.60452 -421.3068,62.39347 -74.15407,14.72513 -143.62266,7.89705 -208.71336,27.09378 -43.39861,1.8633 -157.60179,32.2228 -145.90564,-8.09943 -18.63604,-31.5081 25.74046,-38.37912 76.56946,-43.41791 22.06219,11.89511 59.56064,21.0278 81.69527,-5.56813 29.4581,-31.71154 68.2679,27.57088 83.17625,-15.17332 33.3412,-4.79829 150.04925,34.2998 139.67184,-18.68284 64.42076,-24.47416 68.2555,52.22923 140.81811,14.9277 17.73358,-18.13685 -62.19327,-3.98685 -29.50409,-31.79203 -70.79793,-6.55236 45.77017,-13.36767 60.05221,9.87634 45.52872,29.95668 88.71675,-59.30371 15.70805,-20.89537 -78.87707,-5.4625 117.07225,-17.77282 26.81919,-26.24034 49.07994,-15.43393 113.42632,-8.84296 167.96842,-13.57942 z m -525.795,11.66021 c -27.12408,2.42719 -51.04295,3.88207 0,0 z m 398.19712,14.52255 c -62.7831,25.02567 66.39599,67.95456 20.60947,20.27517 -7.15891,-6.6584 -15.85413,-12.94598 -20.60947,-20.27517 z m -58.41296,25.06756 c -2.3678,7.59754 -18.67895,0.36364 0,0 z m -113.53934,8.51482 6.25791,0.32757 z m -119.78732,6.41317 c -1.54043,20.20136 -98.59791,9.471 -26.09908,4.05639 l 13.04953,-2.02825 z m 452.35294,5.25653 c 2.62652,6.65608 -8.92337,9.293 0,0 z m -581.00183,6.69429 c 3.69784,8.42863 -14.21702,-3.33848 0,0 z m -44.16901,0.0571 c 11.38766,1.07052 -7.43972,4.46443 0,0 z m 49.62488,4.83959 c -0.26521,9.81443 -12.56897,2.55345 0,0 z m 133.44251,1.33201 c -4.71168,3.25181 -11.86054,-1.47074 0,0 z m -480.255871,5.26031 c 15.346914,9.79373 -11.410115,3.92502 0,0 z m 811.819501,11.40357 c 37.00668,0.86224 74.01338,1.72449 111.0199,2.58673 -1.35665,46.53784 -21.96253,86.41711 -116.12183,95.68583 -87.96593,15.04262 -180.73805,20.97799 -270.83532,32.15943 -67.07782,19.42424 -4.4582,-45.31311 24.10033,-12.45426 24.93271,-34.32417 92.948,10.9787 116.77758,-28.67642 47.8311,-20.67781 -19.88667,-24.88985 -38.60354,-5.14994 -40.20042,-5.27733 -71.84501,-3.6228 -105.80209,2.89426 -32.18342,-16.96773 -39.36677,39.84617 -88.85561,15.64803 -50.54135,15.65363 104.90088,32.30145 18.6901,35.8011 -40.59889,1.89319 -183.36832,29.87404 -102.34805,-5.7889 32.08245,28.66595 83.73718,-39.56389 23.25035,-15.35983 -48.60921,-5.79355 -82.57581,-16.88484 -132.10151,7.1565 -37.13338,-3.59832 -99.10151,-12.93069 -42.15909,14.06488 35.17034,30.50595 121.88632,-38.48892 106.19105,17.5971 -82.38898,-0.49433 -207.04699,33.25667 -261.13383,17.97983 2.41361,-30.52966 -26.606832,-73.53166 52.93232,-73.459 41.1129,-6.48804 82.22566,-12.97588 123.33856,-19.46392 62.9466,-17.13017 103.92532,-2.68617 159.59983,-15.53869 36.7426,21.2354 79.16058,11.11866 89.27711,-5.3854 45.46852,10.17709 47.12791,-37.13245 104.10877,-29.45858 59.67635,-17.44766 -18.58897,29.8792 48.15591,10.56406 48.1085,3.36016 143.89506,-10.41304 84.49412,-28.84948 32.26462,-3.56003 64.00679,-8.40484 96.02494,-12.55333 z m -127.8151,17.23741 c -22.35956,11.12236 -40.20165,0.29535 0,0 z M 488.08153,328.4028 c -0.63081,9.76218 -34.47468,-1.83748 0,0 z m 145.4441,37.1541 c 47.84817,12.84131 40.91762,-0.38792 -0.10765,2.48998 -35.51799,18.10744 -13.27845,8.95354 0.10765,-2.48998 z M 70.170213,377.16236 c 0.916826,27.03795 1.833831,54.07596 2.750659,81.11381 -13.052425,-26.30572 -10.778235,-54.46611 -2.750659,-81.11381 z m 894.148097,6.03577 c 19.11015,10.34756 -8.35871,2.49907 0,0 z m -119.18797,9.2395 c 67.0726,-10.97413 180.95956,13.93874 109.77699,52.10906 -90.39535,-22.22535 -179.56845,9.27385 -268.18584,19.29665 -136.01999,20.66011 -270.78178,45.64892 -408.16847,62.55078 -37.91704,0 -75.83428,0 -113.75151,0 -46.76445,-41.95703 35.67791,-57.56617 96.42901,-68.76406 107.88097,-13.15283 217.17449,-23.85183 325.45594,-36.47781 -8.39662,53.69939 -134.89817,6.70097 -192.65159,32.98618 -10.91156,24.41872 -142.65517,17.27915 -56.04608,38.29254 47.97215,14.90699 53.81232,-35.07585 100.50776,-18.75859 42.13108,-36.07498 182.62488,22.09998 173.87524,-38.27995 56.16966,10.41092 124.56909,-7.41365 181.67607,-25.83246 -20.002,-18.86093 35.49427,-11.6399 51.08248,-17.12234 z m -304.393,3.098 c 11.60271,-0.67477 6.7674,4.11647 0,0 z m 228.68718,5.27733 c -24.88097,5.05427 -124.42841,26.4751 -110.04863,11.85129 36.96573,-3.18777 73.28754,-8.03722 110.04863,-11.85129 z m -415.06597,83.44971 c 8.45553,-3.53014 3.37517,3.9135 0,0 z m 157.30192,25.28822 c -7.42048,127.84015 -0.50324,255.77742 -1.30005,383.66778 -73.31663,1.12702 -22.70866,102.06124 -75.51483,57.30352 -2.90929,-57.96899 13.65951,-117.11501 -14.32985,-174.02016 -19.7282,-61.0459 7.5734,-121.94542 15.85573,-182.53926 11.42127,-36.92676 -28.33735,-85.44207 75.289,-84.41188 z m -389.67186,0.84153 c 6.40574,13.85854 -0.29321,24.15134 0,0 z m 24.63376,20.57506 1.75729,5.24117 z m 382.85631,301.1522 c 0.88125,18.16537 0.33219,92.45113 0.27595,40.14915 -0.0915,-13.38305 -0.18404,-26.7662 -0.27595,-40.14915 z m 19.98044,23.87881 c 73.60915,-6.25142 -20.74869,57.09524 0.65831,8.15853 z m 63.03842,4.35463 c 2.99124,1.49434 -8.45212,1.73561 0,0 z m 21.0385,7.5131 c 11.09175,7.37455 13.76263,9.1502 0,0 z m -18.40694,5.00375 c 65.00322,18.5267 -62.57095,13.50146 0,0 z m -217.31644,6.04323 c -10.6918,26.54458 26.65841,90.00141 -42.43667,87.12748 13.6771,-17.17534 33.22637,-60.89624 -16.59666,-29.61181 -9.92178,19.41458 -59.43275,76.88543 -83.89672,42.01868 47.62072,-31.91674 73.27892,-82.60231 142.93005,-99.53435 z m 192.95252,14.76392 c -1.09882,3.21088 -93.30985,6.43319 -103.69643,29.59042 23.86461,-18.51054 59.45091,-36.17578 103.69643,-29.59042 z m 59.92683,7.06035 c 19.37623,10.59878 -0.9648,25.07201 0.89597,2.2517 z m -42.19954,4.06791 c 88.12565,18.83443 -19.44648,57.67422 -7.32651,85.50023 -92.60704,12.44509 -156.70439,-66.43374 -47.61659,-80.76329 17.61968,-3.31565 36.35145,-4.59174 54.9431,-4.73694 z m 69.43679,10.15454 c 61.57883,-9.36322 143.48163,80.96062 41.70474,46.37622 -38.34393,-8.96884 -45.09195,-26.29974 -41.70474,-46.37622 z m -17.5239,41.0653 c 27.34327,17.80193 86.19049,21.19992 13.74036,32.55184 -72.99469,24.31544 -53.55773,-20.24376 -13.74036,-32.55184 z m -245.26499,4.24532 c 51.9314,13.26766 -33.37925,8.88913 0,0 z m -82.25475,7.03191 c -2.77114,16.24387 -8.63611,20.81383 0,0 z m 452.31073,12.72253 c -9.94371,9.4773 -34.90498,-3.1248 0,0 z m -29.12932,2.35843 c -12.59501,1.34583 -11.42306,1.22056 0,0 z m -14.08657,1.67349 c -34.26718,7.01388 -90.29616,22.6152 -26.87381,5.56533 8.72019,-2.16367 17.63996,-4.12575 26.87381,-5.56533 z"
     id="path2316" />
  <metadata
     id="metadata5">
    <rdf:RDF>
      <cc:Work>
        <dc:format>image/svg+xml</dc:format>
        <dc:type
           rdf:resource="http://purl.org/dc/dcmitype/StillImage" />
        <cc:license
           rdf:resource="http://creativecommons.org/publicdomain/zero/1.0/" />
        <dc:publisher>
          <cc:Agent
             rdf:about="http://openclipart.org/">
            <dc:title>Openclipart</dc:title>
          </cc:Agent>
        </dc:publisher>
        <dc:title></dc:title>
        <dc:date>2006-12-26T00:00:00</dc:date>
        <dc:description />
        <dc:source>https://openclipart.org/detail/11508/-by--11508</dc:source>
        <dc:creator>
          <cc:Agent>
            <dc:title>nicubunu</dc:title>
          </cc:Agent>
        </dc:creator>
      </cc:Work>
      <cc:License
         rdf:about="http://creativecommons.org/publicdomain/zero/1.0/">
        <cc:permits
           rdf:resource="http://creativecommons.org/ns#Reproduction" />
        <cc:permits
           rdf:resource="http://creativecommons.org/ns#Distribution" />
        <cc:permits
           rdf:resource="http://creativecommons.org/ns#DerivativeWorks" />
      </cc:License>
    </rdf:RDF>
  </metadata>
</svg>
