<?xml version="1.0" encoding="UTF-8" standalone="no"?>
<!-- Created with Inkscape (http://www.inkscape.org/) -->

<svg
   xmlns:dc="http://purl.org/dc/elements/1.1/"
   xmlns:cc="http://creativecommons.org/ns#"
   xmlns:rdf="http://www.w3.org/1999/02/22-rdf-syntax-ns#"
   xmlns:svg="http://www.w3.org/2000/svg"
   xmlns="http://www.w3.org/2000/svg"
   xmlns:sodipodi="http://sodipodi.sourceforge.net/DTD/sodipodi-0.dtd"
   xmlns:inkscape="http://www.inkscape.org/namespaces/inkscape"
   inkscape:version="0.92.4 (5da689c313, 2019-01-14)"
   sodipodi:docname="xsowing.svg"
   id="svg8"
   version="1.1"
   viewBox="0 0 1024 1024"
   height="1024mm"
   width="1024mm">
  <defs
     id="defs2" />
  <sodipodi:namedview
     id="base"
     pagecolor="#ffffff"
     bordercolor="#666666"
     borderopacity="1.0"
     inkscape:pageopacity="0.0"
     inkscape:pageshadow="2"
     inkscape:zoom="0.0875"
     inkscape:cx="-2409.1059"
     inkscape:cy="1949.1731"
     inkscape:document-units="mm"
     inkscape:current-layer="layer1"
     showgrid="false"
     units="mm"
     inkscape:window-width="1920"
     inkscape:window-height="1024"
     inkscape:window-x="0"
     inkscape:window-y="0"
     inkscape:window-maximized="1"
     showborder="true" />
  <metadata
     id="metadata5">
    <rdf:RDF>
      <cc:Work
         rdf:about="">
        <dc:format>image/svg+xml</dc:format>
        <dc:type
           rdf:resource="http://purl.org/dc/dcmitype/StillImage" />
        <dc:title></dc:title>
      </cc:Work>
    </rdf:RDF>
  </metadata>
  <g
     inkscape:label="Ebene 1"
     inkscape:groupmode="layer"
     id="layer1"
     transform="translate(0,727.00001)">
    <path
       style="fill:#000000;stroke-width:0.56690693"
       d="m 485.22214,298.66124 h -1.18026 l -0.69863,-1.04245 -0.69862,-1.04251 -0.17008,-10.64828 -0.17036,-10.64818 0.8083,-16.24662 0.8083,-16.24657 2.03686,-60.92541 2.03686,-60.92543 3.03795,-79.234568 3.03792,-79.23463 0.52356,-10.4173 0.52356,-10.4173 0.51131,-2.27293 0.51129,-2.27293 1.03796,-1.16504 1.03802,-1.1651 2.39516,0.77616 2.39517,0.7761 1.24117,1.12249 1.24115,1.12252 1.0495,1.74441 1.04956,1.74444 -0.0856,12.10629 -0.0856,12.1063 -1.05543,20.51893 -1.05542,20.5188903 -1.02226,28.7265097 -1.02226,28.72647 -1.51988,45.457328 -1.51994,45.45732 -1.25716,39.14378 -1.2572,39.14377 -0.29826,13.57409 -0.29871,13.57405 -0.51583,10.4173 -0.51587,10.41729 -0.7782,4.73516 -0.7782,4.73512 -1.01528,2.04861 -1.01526,2.04866 -2.75045,0.99171 -2.7504,0.99171 -0.29379,0.58995 -0.29378,0.58989 z m 18.29314,-372.694238 -4.58133,0.20098 -2.15634,-1.10691 -2.15632,-1.10678 -2.27208,-2.0164 -2.27205,-2.01645 -1.80003,-3.03438 -1.80009,-3.0344 -1.08949,-3.47247 -1.08947,-3.47242 -0.0198,-4.47624 -0.0198,-4.476312 1.14769,-2.9404 1.14766,-2.94047 2.10691,-2.23673 2.10691,-2.23676 3.47593,-1.30944 3.47598,-1.30947 6.79374,0.24633 6.79374,0.24633 3.46646,2.19345 3.46646,2.1934 1.54684,3.11006 1.54681,3.11003 v 5.447252 5.4472 l -1.93133,4.84538 -1.9313,4.84546 -2.43706,3.10322 -2.43708,3.10321 -2.24913,1.44666 -2.24915,1.44666 -4.58138,0.20098 z m 21.31376,-33.896112 h -0.69763 l -1.04409,-1.295 -1.04411,-1.29499 0.28063,-1.23043 0.28063,-1.23041 0.29829,-1.42052 0.29826,-1.42056 3.82496,-14.83676 3.82493,-14.83671 2.43975,-8.84419 2.43981,-8.84418 2.66735,-11.04341 2.66734,-11.04339 2.74992,-8.67226 2.74992,-8.67228 3.27881,-7.42718 3.27875,-7.42719 5.80101,-16.73082 5.80108,-16.73082 2.51796,-6.63064 2.51796,-6.63063 4.49966,-10.10018 4.49964,-10.10016 7.02816,-14.30175 7.02819,-14.3017 3.60573,-7.08129 3.60573,-7.08129 2.7864,-4.67311 2.78642,-4.67311 3.677,-4.80104 3.67701,-4.80101 3.13776,-2.77708 3.13778,-2.77707 3.83032,-2.19496 3.83032,-2.19492 3.63078,-0.94728 3.63076,-0.94725 7.47431,-0.70467 7.47428,-0.70472 6.44553,0.36581 6.44554,0.36578 5.24979,1.3269 5.24982,1.3269 3.6879,1.90417 3.68788,1.90415 3.10663,2.49038 3.10666,2.49038 2.46574,3.05821 2.46575,3.05821 1.38625,3.39296 1.38626,3.39296 0.91412,3.96445 0.91408,3.96445 0.57635,7.25755 0.57631,7.25757 -0.56166,9.44496 -0.56163,9.44496 -0.97106,4.70917 -0.97107,4.70914 -1.37471,4.30155 -1.37473,4.30154 -2.53712,6.31355 -2.53709,6.3135 -5.10256,11.36435 -5.10259,11.36429 -4.04428,7.56621 -4.04422,7.56615 -4.21821,6.95489 -4.21823,6.95492 -5.01662,7.26055 -5.01658,7.26055 -7.13271,8.86876 -7.13268,8.86879 -5.09037,5.4184 -5.09043,5.41836 -8.39917,7.81813 -8.39917,7.81807 -10.4353,8.57097 -10.43536,8.57098 -5.59337,4.00681 -5.59341,4.00674 -6.11454,3.56689 -6.11453,3.56689 -3.05424,1.33847 -3.05425,1.33846 -2.03616,0.67728 -2.03618,0.67734 -13.93725,3.77107 -13.9373,3.77111 z m -54.37141,-5.05315 h -4.61134 l -1.76125,-1.33163 -1.76125,-1.33172 -11.4738,-10.74886 -11.47381,-10.75131 -8.46901,-8.44254 -8.46908,-8.44254 -6.80215,-7.36305 -6.80216,-7.36305 -10.47757,-12.99147 -10.47753,-12.99152 -4.83228,-7.26053 -4.83227,-7.26055 -3.08016,-5.06914 -3.08013,-5.06914 -3.8226,-7.24221 -3.82261,-7.24221 -3.05824,-6.62919 -3.05822,-6.62918 -3.38332,-7.89189 -3.38329,-7.8919 -2.45013,-6.62919 -2.4501,-6.62919 -1.63145,-5.51276 -1.63148,-5.51271 -0.95258,-4.27323 -0.95259,-4.2732 -0.78414,-5.68216 -0.78415,-5.68214 -0.48076,-7.57624 -0.48075,-7.57622 0.42239,-6.94488 0.42236,-6.94486 1.13321,-3.7881 1.13321,-3.78811 3.69093,-4.47296 3.69094,-4.47296 1.92614,-1.13363 1.92614,-1.13364 3.34659,0.35351 3.34655,0.35354 4.58138,2.00741 4.58136,2.00738 6.61751,3.91381 6.61754,3.91376 5.59947,3.99546 5.59942,3.99541 5.34493,4.42774 5.34489,4.42775 6.10852,5.74112 6.10847,5.7411 5.10698,6.31775 5.10696,6.31777 4.81929,7.9873 4.81936,7.98735 3.67021,7.51502 3.67024,7.51498 4.99996,12.27714 4.99992,12.27713 2.72321,8.52325 2.72313,8.52321 1.98414,7.26055 1.98411,7.26055 1.5501,6.57005 1.55007,6.57001 1.45262,7.31971 1.45261,7.31971 1.31363,8.39894 1.31358,8.39897 0.7755,6.75346 0.77545,6.75346 0.74602,9.4703 0.74599,9.47027 0.76439,5.99783 0.76442,5.99783 0.33551,5.30167 0.33551,5.30161 -0.9417,0.85408 -0.94172,0.85402 h -4.61132 z m 22.04834,-10.73064 h -0.42064 l -0.73845,-1.42052 -0.73846,-1.42056 -0.53106,-3.78808 -0.53102,-3.78814 -0.50057,-10.73296 -0.50057,-10.73297 -0.29951,-11.36435 -0.29991,-11.36432 -2.52439,-64.7135 -2.52436,-64.71356 -2.56785,-74.18377 -2.56788,-74.1838 -0.29829,-13.25841 -0.29826,-13.25839 0.80521,-2.36756 0.80523,-2.36757 h 2.33303 2.33303 l 1.69316,0.87745 1.69319,0.87745 1.06212,1.41398 1.06217,1.41398 0.53028,3.06688 0.5303,3.06687 0.51004,8.37358 0.50998,8.3736 0.52225,21.15027 0.5222,21.15031 1.0215,27.77943 1.02146,27.77947 1.77358,44.82599 1.77353,44.82594 1.52889,37.88107 1.52884,37.88111 1.06073,21.15026 1.06069,21.15026 -0.19077,10.4173 -0.19077,10.4173 -1.00185,2.51629 -1.00179,2.51625 -3.76728,2.37671 -3.76727,2.37671 z m -10.82605,-372.73141 -3.61665,0.19591 -2.29067,-0.82794 -2.29068,-0.82794 -2.2714,-1.4439 -2.27138,-1.44388 -2.58111,-3.27896 -2.58112,-3.27895 -1.82925,-4.37396 -1.82926,-4.37394 -1.06784,-4.10379 -1.06784,-4.10378 -0.77683,-5.60703 -0.77687,-5.60702 0.003,-8.59839 0.003,-8.59838 0.76439,-6.31351 0.76442,-6.31352 0.74378,-3.18599 0.74376,-3.18598 1.33163,-1.54915 1.33163,-1.54915 6.44718,0.0323 6.44717,0.0323 11.45342,3.21348 11.45339,3.21349 2.03616,0.40577 2.03618,0.40576 4.83587,1.31988 4.83588,1.31987 1.89191,1.18612 1.8919,1.18612 0.52599,1.21913 0.52608,1.21915 2e-4,2.72474 2e-4,2.72475 -3.87576,10.10163 -3.87578,10.10162 -3.22611,8.20757 -3.22608,8.20757 -2.68438,5.05081 -2.68436,5.05081 -3.32172,4.14424 -3.32178,4.14424 -2.49185,1.4808 -2.49188,1.48078 -3.61662,0.1959 z m 29.21644,-81.93956 -1.27258,-0.0699 -4.16334,-0.54191 -4.16327,-0.54191 -2.44151,-1.12432 -2.44148,-1.12432 -1.15807,-2.13135 -1.15804,-2.13136 v -3.0397 -3.03971 l 1.06484,-3.53 1.06489,-3.53 2.59177,-4.85909 2.59184,-4.85909 7.16043,-8.88592 7.1604,-8.88591 4.83587,-4.75373 4.83594,-4.75373 4.58133,-3.7761 4.58138,-3.7761 4.49445,-3.27912 4.49442,-3.27912 4.05002,-2.5256 4.05006,-2.5256 8.76291,-4.62409 8.76289,-4.62408 4.81839,-2.0121 4.81842,-2.0121 3.63157,-0.62647 3.63158,-0.62648 1.31808,0.62155 1.31809,0.62153 0.66634,1.45077 0.66631,1.45076 -0.0369,8.20757 -0.0369,8.20757 -0.90397,6.94487 -0.904,6.94487 -0.98186,5.30064 -0.9819,5.30065 -1.54666,4.79076 -1.5467,4.79077 -2.71914,5.06103 -2.71916,5.06102 -3.73887,4.48859 -3.73881,4.48859 -3.56329,2.84902 -3.5633,2.84901 -5.85397,2.88777 -5.85397,2.88778 -4.57526,1.63555 -4.57534,1.63556 -4.73469,0.94495 -4.73465,0.94494 -10.28809,0.59634 -10.28807,0.59633 -1.27259,-0.0699 z m -48.96982,-5.61441 -1.17063,-0.0303 -2.1761,-0.94591 -2.17607,-0.94592 -3.1519,-2.29115 -3.15193,-2.29114 -5.36187,-5.04313 -5.36186,-5.04314 -4.32683,-4.54553 -4.32683,-4.54554 -3.59586,-4.70025 -3.59587,-4.70026 -3.05189,-5.33037 -3.05184,-5.33036 -2.85641,-5.99785 -2.85648,-5.99784 -1.26825,-5.06574 -1.26824,-5.06575 -0.62487,-5.30032 -0.62487,-5.30033 0.30849,-5.73339 0.30852,-5.73339 1.04627,-5.05082 1.04633,-5.0508 1.8883,-5.05082 1.8883,-5.05081 3.0026,-6.62919 3.00265,-6.62919 2.52258,-4.54154 2.52261,-4.54154 2.47972,-2.87684 2.47981,-2.87686 h 1.22272 1.22281 l 2.08262,2.05189 2.08264,2.05189 1.73486,2.52541 1.7348,2.52541 3.16525,5.98285 3.16529,5.98285 3.76996,8.28371 3.77,8.2837 3.04242,7.83075 3.04249,7.83074 2.53516,8.57494 2.53523,8.57495 1.30101,6.36574 1.30105,6.36576 0.78551,4.6312 0.78554,4.6312 0.52341,4.41947 0.52342,4.41946 0.4108,7.10345 0.41074,7.10344 -0.41324,5.08439 -0.41326,5.0844 -0.85164,3.18005 -0.85159,3.18004 -1.54635,2.18437 -1.54636,2.18437 -1.42628,0.91477 -1.42625,0.91478 -1.17063,-0.0302 z m 20.78864,-3.12662 h -1.7617 l -1.27829,-1.8842 -1.27831,-1.88421 -1.10477,-3.64011 -1.10475,-3.64013 -0.94062,-4.53127 -0.94065,-4.53129 -1.26847,-7.78007 -1.26851,-7.78008 -0.86267,-7.26054 -0.86264,-7.26054 0.30155,-13.88973 0.30195,-13.88974 0.73859,-4.46725 0.73863,-4.46725 1.31698,-4.86588 1.31697,-4.86588 1.84873,-4.5566 1.84873,-4.5566 1.90074,-3.47243 1.90077,-3.47244 2.43196,-3.35291 2.43196,-3.35291 4.12461,-3.96579 4.12463,-3.96579 3.81779,-3.16737 3.81782,-3.16738 2.5452,-1.59598 2.5452,-1.59599 1.98156,-0.67679 1.98153,-0.6768 0.92814,0.61608 0.92815,0.61607 0.58029,2.67251 0.58024,2.67251 -0.0198,8.52324 -0.0198,8.52325 -0.8189,10.73297 -0.8189,10.73298 -0.99811,8.52324 -0.99811,8.52325 -1.73925,9.50691 -1.73923,9.50692 -1.83405,7.53958 -1.83404,7.53957 -2.08085,6.94487 -2.08084,6.94486 -2.94046,7.67202 -2.94043,7.67201 -1.65887,3.06096 -1.65883,3.06096 -1.83606,2.4196 -1.83606,2.41961 -1.37457,0.89499 -1.37455,0.89499 h -1.76171 z"
       id="path1678"
       inkscape:connector-curvature="0" />
    <path
       style="fill:#000000;stroke-width:0.33217251"
       d="m 843.28846,292.05142 h 0.69156 l 0.40936,-0.61082 0.40934,-0.61085 0.0997,-6.23922 0.0998,-6.23918 -0.47361,-9.51953 -0.47362,-9.51947 -1.19347,-35.69854 -1.19348,-35.69854 -1.78005,-46.42658 -1.78003,-46.426602 -0.30677,-6.103899 -0.30678,-6.103899 -0.29959,-1.3318 -0.29959,-1.33179 -0.60818,-0.68265 -0.60822,-0.68267 -1.40341,0.45478 -1.40342,0.45475 -0.72725,0.65771 -0.72724,0.65773 -0.61494,1.02211 -0.61498,1.02214 0.0502,7.093531 0.0501,7.093546 0.61842,12.022833 0.61841,12.0228 0.59898,16.83196 0.59898,16.83194 0.89056,26.63519 0.89059,26.63519 0.73662,22.93584 0.73664,22.93584 0.17476,7.95358 0.17503,7.95355 0.30224,6.1039 0.30227,6.10389 0.45598,2.77452 0.45598,2.77448 0.59489,1.20036 0.59488,1.2004 1.61159,0.58108 1.61157,0.58108 0.17214,0.34567 0.17213,0.34564 z m -10.71865,-218.37586 2.68438,0.11778 1.26348,-0.64858 1.26347,-0.6485 1.3313,-1.1815 1.33128,-1.18151 1.05471,-1.77796 1.05474,-1.77797 0.63837,-2.03465 0.63836,-2.03463 0.0116,-2.6228 0.0116,-2.62285 -0.67248,-1.72289 -0.67246,-1.72294 -1.23452,-1.31059 -1.23451,-1.31058 -2.03669,-0.76726 -2.03671,-0.76728 -3.98071,0.14434 -3.98071,0.14433 -2.03113,1.28523 -2.03113,1.28521 -0.90636,1.82229 -0.90633,1.8223 v 3.19174 3.19172 l 1.13164,2.8391 1.13162,2.83914 1.42797,1.81829 1.42798,1.8183 1.31785,0.84765 1.31786,0.84766 2.68441,0.11776 z M 820.08126,53.81455 h 0.40877 l 0.61177,-0.75879 0.61179,-0.7588 -0.16444,-0.72095 -0.16443,-0.72094 -0.17478,-0.83235 -0.17476,-0.83234 -2.24119,-8.69345 -2.24117,-8.69337 -1.42955,-5.18216 -1.42957,-5.18214 -1.56291,-6.47077 -1.56289,-6.4707397 -1.61129,-5.0814 -1.61128,-5.08144 -1.92118,-4.35186 -1.92115,-4.3518803 -3.39903,-9.80323 -3.39908,-9.80323 -1.47537,-3.88513 -1.47536,-3.88515 -2.63653,-5.91809 -2.63651,-5.91806 -4.11807,-8.37995 -4.11808,-8.37992 -2.11274,-4.14919 -2.11273,-4.1492 -1.63266,-2.73816 -1.63267,-2.73814 -2.15451,-2.81312 -2.15449,-2.81309 -1.83854,-1.62721 -1.83854,-1.62719 -2.24434,-1.2861 -2.24433,-1.2861 -2.1274,-0.55504 -2.12741,-0.55504 -4.37948,-0.41288 -4.37947,-0.41293 -3.77668,0.21435 -3.77668,0.21431 -3.07607,0.77749 -3.07606,0.77749 -2.16089,1.11571 -2.16087,1.11572 -1.8203,1.45921 -1.82031,1.45921 -1.44476,1.79192 -1.44479,1.79192 -0.81224,1.98807 -0.81228,1.98807 -0.53561,2.32292 -0.5356,2.32292 -0.3377,4.25248 -0.33768,4.25249 0.32909,5.53417 0.32908,5.53415 0.569,2.75929 0.56897,2.75926 0.8055,2.52044 0.8055,2.52044 1.4866,3.69936 1.48657,3.69931 2.98979,6.65882 2.98981,6.65877 2.36971,4.43333 2.36965,4.4333 2.47161,4.07514 2.47163,4.0751503 2.93942,4.25424 2.93941,4.25422 4.17933,5.19655 4.1793,5.1965697 2.98265,3.17486 2.98269,3.17481 4.9214,4.58094 4.92139,4.5809 6.11444,5.02208 6.11447,5.02205 3.27737,2.34775 3.2774,2.3477 3.58274,2.08997 3.58274,2.08998 1.7896,0.78427 1.7896,0.78425 1.19306,0.39685 1.19308,0.39687 8.16637,2.20962 8.16639,2.20964 z m 31.85829,-2.96085 h 2.70197 l 1.03198,-0.78024 1.03198,-0.78032 6.72294,-6.29817 6.72295,-6.2996 4.96231,-4.94681 4.96236,-4.9468 3.98564,-4.31428 3.98565,-4.31431 6.13921,-7.61219 6.13919,-7.6122297 2.83141,-4.25423 2.83142,-4.25422 1.80478,-2.97022 1.80477,-2.9701903 2.2398,-4.2435 2.23982,-4.24348 1.79194,-3.8843 1.79193,-3.8843 1.98241,-4.62415 1.9824,-4.62418 1.43563,-3.8843 1.43561,-3.88429 0.95592,-3.23014 0.95595,-3.2301 0.55815,-2.50385 0.55816,-2.50383 0.45946,-3.3294 0.45946,-3.32938 0.2817,-4.43921 0.28169,-4.43919 -0.24749,-4.06928 -0.24748,-4.06926 -0.66399,-2.21959 -0.66399,-2.2196 -2.16266,-2.62089 -2.16266,-2.62086 -1.1286,-0.66424 -1.1286,-0.66424 -1.9609,0.20713 -1.96087,0.20715 -2.68441,1.17621 -2.68439,1.17621 -3.87745,2.29324 -3.87748,2.29323 -3.28094,2.3411 -3.28091,2.34106 -3.1318,2.59438 -3.13178,2.59439 -3.57921,3.36394 -3.57919,3.36392 -2.99238,3.70183 -2.99236,3.70181 -2.82381,4.68008 -2.82384,4.68009 -2.15052,4.40333 -2.15054,4.40332 -2.92966,7.19365 -2.92965,7.19364 -1.59563,4.9941 -1.59559,4.99408 -1.16258,4.25423 -1.16257,4.2542403 -0.90826,3.84964 -0.90825,3.84961998 -0.85114,4.28889002 -0.85114,4.28891 -0.76971,4.9212497 -0.76967,4.92129 -0.4544,3.9571 -0.45437,3.95711 -0.43712,5.54902 -0.4371,5.54899 -0.44789,3.51435 -0.4479,3.51437 -0.19659,3.10645 -0.19659,3.10642 0.55178,0.50044 0.55179,0.5004 h 2.70195 z m -12.91896,-6.28749 h 0.24647 l 0.43268,-0.83234 0.43269,-0.83236 0.31117,-2.21958 0.31115,-2.21962 0.2933,-6.28884 0.2933,-6.28886 0.1755,-6.6588 0.17573,-6.6588 1.47913,-37.91813 1.47912,-37.91814 1.5046,-43.46713 1.50462,-43.46713 0.17478,-7.76861 0.17477,-7.76859 -0.47181,-1.38725 -0.47181,-1.38725 h -1.36701 -1.36702 l -0.99208,0.51413 -0.99211,0.51413 -0.62234,0.82851 -0.62236,0.8285 -0.31071,1.79701 -0.31073,1.79699 -0.29885,4.90641 -0.29881,4.9064 -0.30601,12.39277 -0.30598,12.39278 -0.59853,16.27703 -0.59852,16.27706 -1.03921,26.26525 -1.03917,26.26525 -0.89584,22.19596 -0.89581,22.1959903 -0.62152,12.3927497 -0.6215,12.39275 0.11178,6.1039 0.11178,6.10389 0.58702,1.4744 0.58699,1.47436 2.2074,1.3926 2.20738,1.39261 z m 6.34339,-218.39762 2.11914,0.11479 1.34219,-0.48512 1.3422,-0.48512 1.3309,-0.84604 1.33089,-0.84602 1.51237,-1.92127 1.51237,-1.92126 1.07183,-2.56287 1.07184,-2.56286 0.62568,-2.40457 0.62569,-2.40456 0.45518,-3.28538 0.45519,-3.28536 -0.002,-5.03813 -0.002,-5.03812 -0.44789,-3.69933 -0.4479,-3.69933 -0.43581,-1.86679 -0.4358,-1.86679 -0.78025,-0.90771 -0.78025,-0.90771 -3.77765,0.0189 -3.77765,0.0189 -6.71099,1.8829 -6.71098,1.8829 -1.19307,0.23776 -1.19307,0.23775 -2.83353,0.77337 -2.83352,0.77336 -1.10855,0.69499 -1.10853,0.695 -0.3082,0.71433 -0.30825,0.71435 -1.2e-4,1.59653 -1.2e-4,1.59653 2.27096,5.91894 2.27097,5.91892 1.8903,4.80913 1.89028,4.80913 1.57289,2.95947 1.57287,2.95946 1.94632,2.42827 1.94636,2.42827 1.46007,0.86765 1.46009,0.86765 2.11911,0.11479 z m -17.11903,-48.01153 0.74566,-0.041 2.43946,-0.31753 2.43942,-0.31753 1.43057,-0.65878 1.43056,-0.65878 0.67855,-1.24884 0.67854,-1.24885 v -1.78107 -1.78108 l -0.62393,-2.06837 -0.62396,-2.06836 -1.51861,-2.84713 -1.51866,-2.84712 -4.19557,-5.2066 -4.19556,-5.2066 -2.83352,-2.78539 -2.83356,-2.78539 -2.68438,-2.21257 -2.6844,-2.21256 -2.63347,-1.92136 -2.63346,-1.92136 -2.37306,-1.47985 -2.37308,-1.47984 -5.13453,-2.70944 -5.13451,-2.70942 -2.82328,-1.17897 -2.8233,-1.17896 -2.12787,-0.36708 -2.12789,-0.36708 -0.77231,0.36419 -0.77232,0.36418 -0.39043,0.85006 -0.39042,0.85006 0.0216,4.80913 0.0216,4.80913 0.52967,4.06927 0.52969,4.06926 0.57531,3.10585 0.57533,3.10585 0.90625,2.80709 0.90627,2.8071 1.59325,2.96545 1.59326,2.96545 2.19075,2.63003 2.19071,2.63004 2.08787,1.66935 2.08787,1.66934 3.43007,1.69206 3.43006,1.69206 2.68082,0.95833 2.68087,0.95834 2.77424,0.55368 2.77421,0.55368 6.02819,0.34942 6.02817,0.34941 0.74566,-0.041 z m 28.6933,-3.28969 0.68591,-0.0178 1.27506,-0.55424 1.27505,-0.55425 1.84682,-1.34248 1.84683,-1.34246 3.14173,-2.95497 3.14172,-2.95497 2.53525,-2.6634 2.53525,-2.6634 2.10696,-2.75406 2.10696,-2.75406 1.78822,-3.12327 1.78819,-3.12326 1.67368,-3.51437 1.67372,-3.51437 0.74311,-2.96821 0.74312,-2.96821 0.36613,-3.10567 0.36614,-3.10566 -0.18076,-3.35941 -0.18077,-3.35942 -0.61305,-2.95947 -0.61309,-2.95945 -1.10643,-2.95947 -1.10642,-2.95947 -1.75934,-3.88429 -1.75937,-3.8843 -1.47808,-2.66106 -1.47809,-2.66106 -1.45296,-1.68565 -1.45302,-1.68567 h -0.71644 -0.71649 l -1.22028,1.20228 -1.2203,1.20228 -1.01652,1.47974 -1.01649,1.47973 -1.85464,3.50558 -1.85467,3.50559 -2.20896,4.85374 -2.20899,4.85374 -1.78267,4.58833 -1.78271,4.58833 -1.48545,5.02439 -1.48549,5.02439 -0.76231,3.72993 -0.76233,3.72995 -0.46026,2.71359 -0.46028,2.7136 -0.30669,2.58954 -0.30669,2.58953 -0.2407,4.16218 -0.24067,4.16218 0.24213,2.97914 0.24215,2.97914 0.49901,1.86332 0.49898,1.8633 0.90606,1.27991 0.90607,1.27991 0.83572,0.536 0.83569,0.536 0.68592,-0.0177 z m -12.18086,-1.83201 h 1.03224 l 0.749,-1.10403 0.74901,-1.10403 0.64733,-2.13288 0.64732,-2.13289 0.55114,-2.65504 0.55116,-2.65506 0.74325,-4.55864 0.74327,-4.55865 0.50547,-4.25423 0.50545,-4.25423 -0.17669,-8.13852 -0.17692,-8.13853 -0.43277,-2.61753 -0.43279,-2.61754 -0.77167,-2.8511 -0.77166,-2.85111 -1.08324,-2.66989 -1.08325,-2.66988 -1.11371,-2.03463 -1.11374,-2.03464 -1.42498,-1.9646 -1.42497,-1.96459 -2.41677,-2.32371 -2.41678,-2.32371 -2.23699,-1.85589 -2.23701,-1.85588 -1.49133,-0.93515 -1.49133,-0.93515 -1.16107,-0.39656 -1.16105,-0.39656 -0.54384,0.36098 -0.54383,0.36098 -0.34002,1.56593 -0.33998,1.56592 0.0116,4.9941 0.0116,4.9941 0.47982,6.28885 0.47983,6.28887 0.58483,4.99409 0.58483,4.9941 1.01909,5.57046 1.01909,5.57047 1.07464,4.41773 1.07463,4.41772 1.21925,4.06927 1.21924,4.06926 1.72293,4.49533 1.72291,4.49532 0.972,1.79354 0.97197,1.79353 1.07582,1.41774 1.07582,1.41774 0.80541,0.52441 0.8054,0.52441 h 1.03225 z"
       id="path1678-0"
       inkscape:connector-curvature="0" />
    <path
       style="fill:#000000;stroke-width:0.49825796"
       d="m 199.8579,294.30715 h 1.03734 l 0.61403,-0.91623 0.61402,-0.91626 0.14948,-9.35882 0.14973,-9.35875 -0.71042,-14.27928 -0.71042,-14.27919 -1.79021,-53.54772 -1.79021,-53.54772 -2.67007,-69.63976 -2.67004,-69.6397915 -0.46016,-9.1558285 -0.46016,-9.15584 -0.4494,-1.99769 -0.44937,-1.99769 -0.91227,-1.02396 -0.91233,-1.02401 -2.10512,0.68217 -2.10513,0.68213 -1.09087,0.98656 -1.09085,0.98659 -0.92241,1.53316 -0.92247,1.53321 0.0752,10.6402795 0.0752,10.640298 0.92762,18.0342305 0.92762,18.034162 0.89847,25.24791 0.89847,25.24787 1.33583,39.95271 1.33589,39.95272 1.10492,34.40371 1.10496,34.4037 0.26215,11.93035 0.26253,11.93031 0.45337,9.15584 0.4534,9.15581 0.68397,4.16177 0.68396,4.16172 0.89234,1.80054 0.89231,1.80059 2.41739,0.87162 2.41734,0.87162 0.25822,0.5185 0.2582,0.51846 z m -16.07795,-327.56325 4.02655,0.17666 1.89522,-0.97287 1.89521,-0.97276 1.99694,-1.77223 1.99692,-1.77226 1.58206,-2.66694 1.58211,-2.66695 0.95756,-3.05197 0.95754,-3.05194 0.0174,-3.93419 0.0174,-3.93427 -1.00871,-2.58434 -1.00868,-2.5844 -1.85178,-1.96588 -1.85178,-1.96588 -3.05501,-1.15088 -3.05506,-1.15091 -5.97106,0.2165 -5.97106,0.2165 -3.04669,1.92784 -3.0467,1.92781 -1.35952,2.73343 -1.3595,2.73344 v 4.78762 4.78756 l 1.69745,4.25866 1.69744,4.25868 2.14194,2.72744 2.14197,2.72744 1.97677,1.27148 1.97679,1.27148 4.02661,0.17664 z m -18.7328,-29.79148 h 0.61315 l 0.91766,-1.13818 0.91767,-1.1382 -0.24664,-1.08142 -0.24665,-1.08141 -0.26217,-1.24852 -0.26214,-1.24852 -3.36178,-13.04013 -3.36176,-13.04006 -2.14431,-7.77322 -2.14436,-7.77321 -2.34435,-9.70613 -2.34434,-9.7061 -2.41692,-7.62208 -2.41693,-7.62215 -2.88176,-6.52778 -2.88172,-6.52782 -5.09854,-14.70482 -5.0986,-14.70481 -2.21305,-5.82769 -2.21305,-5.82772 -3.95478,-8.87711 -3.95476,-8.87708 -6.1771,-12.5699 -6.17712,-12.56986 -3.16909,-6.22378 -3.169098,-6.22378 -2.44899,-4.10724 -2.449,-4.10721 -3.23175,-4.21968 -3.23173,-4.21962 -2.75781,-2.44081 -2.75781,-2.44078 -3.36649,-1.92915 -3.36649,-1.92915 -3.19111,-0.83255 -3.19111,-0.83256 -6.56919,-0.61933 -6.56921,-0.61938 -5.665,0.32151 -5.66502,0.32147 -4.61409,1.16623 -4.61409,1.16624 -3.24132,1.67357 -3.24131,1.67357 -2.73044,2.18882 -2.73046,2.1888 -2.16715,2.68788 -2.16717,2.68788 -1.21836,2.9821 -1.21842,2.98209 -0.80341,3.48437 -0.8034,3.48439 -0.50655,6.37871 -0.50652,6.37872 0.49364,8.30124 0.49362,8.30121 0.85349,4.13893 0.85346,4.13889 1.20825,3.78065 1.20825,3.78065 2.22989,5.54904 2.22985,5.54896 4.48468,9.9882 4.48471,9.98814 3.55455,6.64998 3.55448,6.64995 3.7074,6.11269 3.70745,6.11272 4.40912,6.38135 4.4091,6.38133 6.26899,7.79481 6.26894,7.79484 4.47397,4.76227 4.47402,4.76222 7.38209,6.8714 7.38208,6.87134 9.171638,7.5331 9.1717,7.53307 4.91605,3.52162 4.91608,3.52156 5.3741,3.13494 5.3741,3.13497 2.68439,1.1764 2.6844,1.17637 1.78959,0.59527 1.78962,0.5953 12.24953,3.31443 12.24958,3.31445 z m 47.78737,-4.44126 h 4.05293 l 1.54797,-1.17037 1.54798,-1.17047 10.08439,-9.44723 10.0844,-9.4494 7.44347,-7.4202 7.44352,-7.4202 5.97845,-6.47141 5.97845,-6.47145 9.2088,-11.41827 9.20877,-11.41833 4.24713,-6.38133 4.2471,-6.38132 2.70717,-4.45532 2.70715,-4.45528 3.3597,-6.36524 3.35972,-6.36521 2.6879,-5.82644 2.68789,-5.82643 2.97362,-6.93622 2.9736,-6.93626 2.15343,-5.82644 2.15341,-5.82642 1.43389,-4.8452 1.43392,-4.84515 0.83723,-3.75577 0.83723,-3.75574 0.68919,-4.99409 0.68919,-4.99407 0.42255,-6.6588 0.42253,-6.65878 -0.37124,-6.1039 -0.37122,-6.10388 -0.99598,-3.32938 -0.99599,-3.3294 -3.24398,-3.93132 -3.24399,-3.9313 -1.69289,-0.99635 -1.6929,-0.99636 -2.94134,0.3107 -2.9413,0.31073 -4.0266,1.7643 -4.02659,1.76432 -5.81617,3.43985 -5.81619,3.43984 -4.92141,3.51165 -4.92137,3.51157 -4.69769,3.89158 -4.69766,3.89158 -5.36881,5.04589 -5.36876,5.04588 -4.48856,5.55274 -4.48854,5.5527 -4.2357,7.0201 -4.23577,7.02013 -3.22576,6.60499 -3.2258,6.60497 -4.3945,10.79046 -4.39446,10.79043 -2.39344,7.49115 -2.39338,7.4911 -1.74387,6.38133 -1.74385,6.38135 -1.36239,5.77446 -1.36237,5.77442 -1.27671,6.43332 -1.27671,6.43335 -1.15456,7.38188 -1.15451,7.38192 -0.68159,5.93563 -0.68155,5.93567 -0.65568,8.32351 -0.65566,8.32347 -0.67182,5.27153 -0.67186,5.27154 -0.29488,4.65967 -0.29488,4.65962 0.82766,0.75065 0.82769,0.7506 h 4.05292 z m -19.37843,-9.43122 h 0.36971 l 0.64903,-1.2485 0.64903,-1.24855 0.46675,-3.32936 0.46672,-3.32943 0.43996,-9.43325 0.43995,-9.43328 0.26324,-9.98818 0.26359,-9.98818 2.21871,-56.87711 2.21867,-56.87711 2.2569,-65.2006 2.25693,-65.20058 0.26216,-11.6529 0.26215,-11.65288 -0.70771,-2.08086 -0.70772,-2.08087 h -2.05051 -2.05052 l -1.48813,0.77119 -1.48815,0.7712 -0.9335,1.24275 -0.93355,1.24276 -0.46607,2.6955 -0.46608,2.69549 -0.44828,7.35959 -0.44822,7.3596 -0.45901,18.58912 -0.45897,18.58913 -0.8978,24.41551 -0.89777,24.41556 -1.55881,39.39782 -1.55876,39.3978 -1.34376,33.29388 -1.3437,33.29394 -0.93228,18.5891 -0.93225,18.5891 0.16767,9.15583 0.16767,9.15583 0.88053,2.21159 0.88048,2.21154 3.31108,2.0889 3.31108,2.08891 z m 9.51509,-327.59592 3.17869,0.17219 2.01329,-0.72768 2.01329,-0.72768 1.99635,-1.26905 1.99633,-1.26904 2.26855,-2.8819 2.26856,-2.88189 1.60774,-3.8443 1.60775,-3.84428 0.93853,-3.60685 0.93853,-3.60683 0.68276,-4.92805 0.6828,-4.92805 -0.003,-7.55718 -0.003,-7.55716 -0.67182,-5.54899 -0.67186,-5.54899 -0.65371,-2.80018 -0.6537,-2.80018 -1.17037,-1.36156 -1.17038,-1.36156 -5.66647,0.0284 -5.66645,0.0284 -10.06648,2.82435 -10.06646,2.82436 -1.78959,0.35663 -1.78961,0.35663 -4.25028,1.16005 -4.25028,1.16004 -1.66281,1.04248 -1.66281,1.04249 -0.46229,1.0715 -0.46238,1.07152 -1.7e-4,2.39479 -1.8e-4,2.3948 3.40643,8.87839 3.40645,8.87837 2.83544,7.21368 2.83543,7.21369 2.35931,4.43918 2.3593,4.43919 2.91948,3.6424 2.91954,3.6424 2.1901,1.30148 2.19013,1.30147 3.17867,0.17218 z m -25.67851,-72.01717 1.11848,-0.0614 3.65918,-0.47629 3.65913,-0.47629 2.14585,-0.98817 2.14584,-0.98817 1.01783,-1.87326 1.01781,-1.87326 v -2.67162 -2.67162 l -0.9359,-3.10254 -0.93593,-3.10254 -2.27793,-4.27068 -2.27798,-4.27069 -6.29335,-7.80988 -6.29332,-7.80988 -4.25027,-4.17809 -4.25034,-4.17808 -4.02656,-3.31884 -4.0266,-3.31883 -3.9502,-2.88204 -3.95017,-2.88204 -3.55959,-2.21977 -3.55962,-2.21976 -7.70178,-4.06414 -7.70175,-4.06413 -4.23492,-1.76845 -4.23494,-1.76845 -3.1918,-0.55061 -3.19182,-0.55061 -1.15847,0.54628 -1.15848,0.54627 -0.58565,1.27509 -0.58562,1.27508 0.0324,7.21368 0.0324,7.21369 0.79451,6.10388 0.79453,6.10389 0.86296,4.65877 0.863,4.65877 1.35937,4.21063 1.3594,4.21064 2.38987,4.44817 2.38988,4.44816 3.28612,3.94505 3.28606,3.94505 3.1318,2.50402 3.13181,2.50401 5.14509,2.53808 5.14509,2.53809 4.02122,1.43749 4.02129,1.4375 4.16135,0.83053 4.16132,0.83051 9.04226,0.52413 9.04225,0.52411 1.11849,-0.0614 z m 43.03987,-4.93454 1.02888,-0.0266 1.91258,-0.83137 1.91256,-0.83137 2.77023,-2.01371 2.77025,-2.0137 4.71258,-4.43243 4.71257,-4.43245 3.80288,-3.99509 3.80288,-3.99511 3.16042,-4.13107 3.16043,-4.13109 2.68233,-4.6849 2.68228,-4.68488 2.51051,-5.27155 2.51057,-5.27154 1.11467,-4.45231 1.11467,-4.45232 0.5492,-4.65848 0.5492,-4.65849 -0.27113,-5.03911 -0.27116,-5.03911 -0.91958,-4.4392 -0.91962,-4.43918 -1.65964,-4.4392 -1.65963,-4.43918 -2.639,-5.82644 -2.63905,-5.82644 -2.21711,-3.99158 -2.21714,-3.99159 -2.17944,-2.52847 -2.17952,-2.52849 h -1.07465 -1.07474 l -1.83043,1.80342 -1.83044,1.80342 -1.52478,2.21959 -1.52473,2.2196 -2.78196,5.25837 -2.78199,5.25836 -3.31344,7.2806 -3.31347,7.2806 -2.67401,6.88249 -2.67406,6.88249 -2.22817,7.53656 -2.22823,7.53658 -1.14346,5.59489 -1.1435,5.5949 -0.69039,4.07039 -0.69042,4.07039 -0.46003,3.8843 -0.46003,3.88429 -0.36106,6.24327 -0.361,6.24325 0.3632,4.4687 0.36322,4.46871 0.74851,2.79497 0.74847,2.79496 1.35909,1.91985 1.35911,1.91986 1.25356,0.804 1.25354,0.804 1.02888,-0.0265 z m -18.27126,-2.74801 h 1.54837 l 1.1235,-1.65603 1.12351,-1.65605 0.97099,-3.19931 0.97097,-3.19933 0.82672,-3.98256 0.82674,-3.98258 1.11487,-6.83795 1.1149,-6.83796 0.7582,-6.38134 0.75818,-6.38133 -0.26503,-12.20777 -0.26539,-12.20777 -0.64915,-3.9263 -0.64918,-3.92629 -1.15751,-4.27665 -1.15749,-4.27665 -1.62486,-4.00483 -1.62486,-4.00482 -1.67057,-3.05194 -1.6706,-3.05195 -2.13746,-2.94689 -2.13747,-2.9469 -3.62514,-3.48555 -3.62517,-3.48556 -3.35547,-2.78382 -3.35551,-2.78383 -2.23699,-1.40272 -2.23699,-1.40272 -1.74161,-0.59484 -1.74158,-0.59484 -0.81575,0.54147 -0.81575,0.54147 -0.51002,2.34889 -0.50998,2.34888 0.0174,7.49113 0.0174,7.49114 0.71973,9.43327 0.71974,9.43328 0.87724,7.49113 0.87725,7.49114 1.52864,8.35568 1.52862,8.35569 1.61195,6.62658 1.61195,6.62657 1.82887,6.10389 1.82887,6.10388 2.58438,6.74299 2.58437,6.74297 1.45799,2.6903 1.45795,2.6903 1.61373,2.1266 1.61372,2.12661 1.20812,0.78661 1.2081,0.78661 h 1.54838 z"
       id="path1678-2"
       inkscape:connector-curvature="0" />
  </g>
</svg>
